<?xml version="1.0" encoding="UTF-8"?>
<!DOCTYPE svg PUBLIC "-//W3C//DTD SVG 1.1//EN" "http://www.w3.org/Graphics/SVG/1.1/DTD/svg11.dtd">
<!-- Creator: CorelDRAW 2019 (64-Bit) -->
<svg xmlns="http://www.w3.org/2000/svg" xml:space="preserve" width="215.9mm" height="279.4mm" version="1.1" style="shape-rendering:geometricPrecision; text-rendering:geometricPrecision; image-rendering:optimizeQuality; fill-rule:evenodd; clip-rule:evenodd"
viewBox="0 0 21590 27940"
 xmlns:xlink="http://www.w3.org/1999/xlink">
 <defs>
  <style type="text/css">
   <![CDATA[
    .fil0 {fill:#D2FAC0}
   ]]>
  </style>
 </defs>
 <g id="Capa_x0020_1">
  <metadata id="CorelCorpID_0Corel-Layer"/>
  <g id="_2344067539216">
   <path class="fil0" d="M2742.58 2977.38l1217.02 0c126.24,0 229.84,103.64 229.84,229.89l0 267.2c0,126.32 -103.6,229.88 -229.84,229.88l-1217.02 0c-126.24,0 -229.88,-103.56 -229.88,-229.88l0 -267.2c0,-126.25 103.64,-229.89 229.88,-229.89zm0 1692.58l1217.02 0c126.24,0 229.84,103.64 229.84,229.89l0 267.2c0,126.24 -103.6,229.88 -229.84,229.88l-1217.02 0c-126.24,0 -229.88,-103.64 -229.88,-229.88l0 -267.2c0,-126.25 103.64,-229.89 229.88,-229.89zm-805.02 0l267.24 0c126.24,0 229.88,103.64 229.88,229.89l0 267.2c0,126.24 -103.64,229.88 -229.88,229.88l-267.24 0c-126.28,0 -229.85,-103.64 -229.85,-229.88l0 -267.2c0,-126.25 103.57,-229.89 229.85,-229.89zm267.24 167.59l-267.24 0c-34.53,0 -62.26,27.73 -62.26,62.3l0 267.2c0,34.53 27.73,62.22 62.26,62.22l267.24 0c34.3,0 62.21,-27.88 62.21,-62.22l0 -267.2c0,-34.58 -27.68,-62.3 -62.21,-62.3zm1754.8 0l-1217.02 0c-34.57,0 -62.22,27.73 -62.22,62.3l0 267.2c0,34.53 27.65,62.22 62.22,62.22l1217.02 0c34.3,0 62.22,-27.88 62.22,-62.22l0 -267.2c0,-34.58 -27.69,-62.3 -62.22,-62.3zm-1217.02 -1013.99l1217.02 0c126.24,0 229.84,103.64 229.84,229.88l0 267.2c0,126.25 -103.6,229.89 -229.84,229.89l-1217.02 0c-126.24,0 -229.88,-103.64 -229.88,-229.89l0 -267.2c0,-126.24 103.64,-229.88 229.88,-229.88zm-805.02 0l267.24 0c126.24,0 229.88,103.64 229.88,229.88l0 267.2c0,126.25 -103.64,229.89 -229.88,229.89l-267.24 0c-126.28,0 -229.85,-103.64 -229.85,-229.89l0 -267.2c0,-126.24 103.57,-229.88 229.85,-229.88zm267.24 167.66l-267.24 0c-34.53,0 -62.26,27.69 -62.26,62.22l0 267.2c0,34.57 27.73,62.3 62.26,62.3l267.24 0c34.3,0 62.21,-27.95 62.21,-62.3l0 -267.2c0,-34.53 -27.68,-62.22 -62.21,-62.22zm1754.8 0l-1217.02 0c-34.57,0 -62.22,27.69 -62.22,62.22l0 267.2c0,34.57 27.65,62.3 62.22,62.3l1217.02 0c34.3,0 62.22,-27.95 62.22,-62.3l0 -267.2c0,-34.53 -27.69,-62.22 -62.22,-62.22zm-2022.04 -1013.84l267.24 0c126.24,0 229.88,103.64 229.88,229.89l0 267.2c0,126.32 -103.64,229.88 -229.88,229.88l-267.24 0c-126.28,0 -229.85,-103.56 -229.85,-229.88l0 -267.2c0,-126.25 103.57,-229.89 229.85,-229.89zm267.24 167.66l-267.24 0c-34.53,0 -62.26,27.69 -62.26,62.22l0 267.2c0,34.58 27.73,62.3 62.26,62.3l267.24 0c34.3,0 62.21,-27.95 62.21,-62.3l0 -267.2c0,-34.53 -27.68,-62.22 -62.21,-62.22zm1754.8 0l-1217.02 0c-34.57,0 -62.22,27.69 -62.22,62.22l0 267.2c0,34.58 27.65,62.3 62.22,62.3l1217.02 0c34.3,0 62.22,-27.95 62.22,-62.3l0 -267.2c0,-34.53 -27.69,-62.22 -62.22,-62.22z"/>
  </g>
 </g>
</svg>
