<?xml version="1.0" encoding="UTF-8"?>
<!DOCTYPE svg PUBLIC "-//W3C//DTD SVG 1.1//EN" "http://www.w3.org/Graphics/SVG/1.1/DTD/svg11.dtd">
<!-- Creator: CorelDRAW 2019 (64-Bit) -->
<svg xmlns="http://www.w3.org/2000/svg" xml:space="preserve" width="215.9mm" height="279.4mm" version="1.1" style="shape-rendering:geometricPrecision; text-rendering:geometricPrecision; image-rendering:optimizeQuality; fill-rule:evenodd; clip-rule:evenodd"
viewBox="0 0 21590 27940"
 xmlns:xlink="http://www.w3.org/1999/xlink">
 <defs>
  <style type="text/css">
   <![CDATA[
    .fil0 {fill:#1E1E28}
   ]]>
  </style>
 </defs>
 <g id="Capa_x0020_1">
  <metadata id="CorelCorpID_0Corel-Layer"/>
  <g id="_2344067539216">
   <path class="fil0" d="M9227.62 3762.67l7628.37 0c791.28,0 1440.65,649.62 1440.65,1440.97l0 1674.82c0,791.79 -649.37,1440.91 -1440.65,1440.91l-7628.37 0c-791.28,0 -1440.9,-649.12 -1440.9,-1440.91l0 -1674.82c0,-791.35 649.62,-1440.97 1440.9,-1440.97zm0 10609.2l7628.37 0c791.28,0 1440.65,649.63 1440.65,1440.97l0 1674.83c0,791.28 -649.37,1440.9 -1440.65,1440.9l-7628.37 0c-791.28,0 -1440.9,-649.62 -1440.9,-1440.9l0 -1674.83c0,-791.34 649.62,-1440.97 1440.9,-1440.97zm-5045.91 0l1675.07 0c791.28,0 1440.91,649.63 1440.91,1440.97l0 1674.83c0,791.28 -649.63,1440.9 -1440.91,1440.9l-1675.07 0c-791.54,0 -1440.72,-649.62 -1440.72,-1440.9l0 -1674.83c0,-791.34 649.18,-1440.97 1440.72,-1440.97zm1675.07 1050.47l-1675.07 0c-216.44,0 -390.25,173.81 -390.25,390.5l0 1674.83c0,216.43 173.81,390 390.25,390l1675.07 0c215,0 389.94,-174.76 389.94,-390l0 -1674.83c0,-216.75 -173.5,-390.5 -389.94,-390.5zm10999.21 0l-7628.37 0c-216.68,0 -389.99,173.81 -389.99,390.5l0 1674.83c0,216.43 173.31,390 389.99,390l7628.37 0c214.99,0 390,-174.76 390,-390l0 -1674.83c0,-216.75 -173.57,-390.5 -390,-390.5zm-7628.37 -6355.76l7628.37 0c791.28,0 1440.65,649.63 1440.65,1440.91l0 1674.82c0,791.35 -649.37,1440.97 -1440.65,1440.97l-7628.37 0c-791.28,0 -1440.9,-649.62 -1440.9,-1440.97l0 -1674.82c0,-791.28 649.62,-1440.91 1440.9,-1440.91zm-5045.91 0l1675.07 0c791.28,0 1440.91,649.63 1440.91,1440.91l0 1674.82c0,791.35 -649.63,1440.97 -1440.91,1440.97l-1675.07 0c-791.54,0 -1440.72,-649.62 -1440.72,-1440.97l0 -1674.82c0,-791.28 649.18,-1440.91 1440.72,-1440.91zm1675.07 1050.91l-1675.07 0c-216.44,0 -390.25,173.56 -390.25,390l0 1674.82c0,216.69 173.81,390.5 390.25,390.5l1675.07 0c215,0 389.94,-175.19 389.94,-390.5l0 -1674.82c0,-216.44 -173.5,-390 -389.94,-390zm10999.21 0l-7628.37 0c-216.68,0 -389.99,173.56 -389.99,390l0 1674.82c0,216.69 173.31,390.5 389.99,390.5l7628.37 0c214.99,0 390,-175.19 390,-390.5l0 -1674.82c0,-216.44 -173.57,-390 -390,-390zm-12674.28 -6354.82l1675.07 0c791.28,0 1440.91,649.62 1440.91,1440.97l0 1674.82c0,791.79 -649.63,1440.91 -1440.91,1440.91l-1675.07 0c-791.54,0 -1440.72,-649.12 -1440.72,-1440.91l0 -1674.82c0,-791.35 649.18,-1440.97 1440.72,-1440.97zm1675.07 1050.9l-1675.07 0c-216.44,0 -390.25,173.57 -390.25,390l0 1674.83c0,216.75 173.81,390.5 390.25,390.5l1675.07 0c215,0 389.94,-175.19 389.94,-390.5l0 -1674.83c0,-216.43 -173.5,-390 -389.94,-390zm10999.21 0l-7628.37 0c-216.68,0 -389.99,173.57 -389.99,390l0 1674.83c0,216.75 173.31,390.5 389.99,390.5l7628.37 0c214.99,0 390,-175.19 390,-390.5l0 -1674.83c0,-216.43 -173.57,-390 -390,-390z"/>
  </g>
 </g>
</svg>
