<?xml version="1.0" encoding="UTF-8"?>
<!DOCTYPE svg PUBLIC "-//W3C//DTD SVG 1.1//EN" "http://www.w3.org/Graphics/SVG/1.1/DTD/svg11.dtd">
<!-- Creator: CorelDRAW 2019 (64-Bit) -->
<svg xmlns="http://www.w3.org/2000/svg" xml:space="preserve" width="215.9mm" height="279.4mm" version="1.1" style="shape-rendering:geometricPrecision; text-rendering:geometricPrecision; image-rendering:optimizeQuality; fill-rule:evenodd; clip-rule:evenodd"
viewBox="0 0 21590 27940"
 xmlns:xlink="http://www.w3.org/1999/xlink">
 <defs>
  <style type="text/css">
   <![CDATA[
    .fil0 {fill:#D2FABE}
   ]]>
  </style>
 </defs>
 <g id="Capa_x0020_1">
  <metadata id="CorelCorpID_0Corel-Layer"/>
  <g id="_2680502313888">
   <g>
    <path class="fil0" d="M18305.65 19171.56l-15535.25 0c-542.07,0 -982.89,-441.01 -982.89,-982.7l0 -11469.15c0,-542.13 441.01,-983.14 982.89,-983.14l15535.25 0c542.07,0 982.89,441.27 982.89,983.14l0 11468.96c0.25,541.88 -440.82,982.89 -982.89,982.89zm-15535.25 -13041.67c-325.15,0 -589.82,264.41 -589.82,589.82l0 11468.96c0,325.15 264.67,589.63 589.82,589.63l15535.25 0c324.95,0 589.82,-264.48 589.82,-589.63l0 -11468.96c0,-325.41 -264.87,-589.82 -589.82,-589.82l-15535.25 0z"/>
   </g>
   <g>
    <polygon class="fil0" points="17192.42,17163.78 17192.42,14890.29 13367.8,14203.28 9483.28,16158.4 5933.21,15772.57 3283.46,17163.78 "/>
   </g>
   <path class="fil0" d="M15168.81 10077.15l1792.73 -1792.73c-31.08,-50.4 -63.77,-99.64 -97.95,-147.78l-1837 1836.8 142.22 103.71z"/>
   <path class="fil0" d="M14864.59 9855.32l1878.81 -1879c-36.64,-45.1 -74.31,-88.52 -113.79,-131.3l-1906.6 1906.79 141.58 103.51z"/>
   <path class="fil0" d="M14581.05 9088.06l1624.99 -1624.8c-47.1,-34.76 -95.7,-68.56 -145.06,-100.41l-1479.74 1479.73 0 245.48 -0.19 0z"/>
   <path class="fil0" d="M14581.05 8562.27l1305.2 -1304.81c-53.5,-29.47 -107.46,-56.8 -162.83,-82.97l-1142.37 1142.43 0 245.35z"/>
   <path class="fil0" d="M14581.05 8036.61l946.9 -946.9c-59.71,-23.07 -120.64,-43.61 -182.35,-63l-764.55 764.61 0 245.29z"/>
   <path class="fil0" d="M14581.05 7510.82l544.14 -544.14c-67.91,-15.44 -137.12,-27.78 -206.64,-38.51l-337.5 337.49 0 245.16z"/>
   <path class="fil0" d="M14581.05 9613.66l1910.21 -1910.47c-41.94,-40.13 -84.58,-79.22 -128.78,-116.64l-1781.43 1781.63 0 245.48z"/>
   <path class="fil0" d="M15472.96 10298.99l1670.09 -1670.1c-24.87,-56.15 -51.43,-111.53 -79.86,-165.61l-1732.45 1732.45 142.22 103.26z"/>
   <path class="fil0" d="M16080.68 10743.36l1290.6 -1290.41c-8.85,-71.59 -19.51,-142.22 -33.34,-211.75l-1398.64 1398.45 141.38 103.71z"/>
   <path class="fil0" d="M15776.53 10520.88l1505.84 -1505.64c-17.71,-63 -37.03,-125.17 -58.61,-186.29l-1589 1589 141.77 102.93z"/>
   <path class="fil0" d="M16688.41 11187.86l597.9 -598.03c28.82,-102.49 51.82,-207.49 69.14,-314.11l-808.62 808.62 141.58 103.52z"/>
   <path class="fil0" d="M16384.45 10965.64l1004.34 -1004.15c2.65,-50.59 4.33,-101.64 4.33,-153.14 0,-31.66 -1.23,-63.13 -2.26,-94.41l-1148.18 1148.38 141.77 103.32z"/>
   <path class="fil0" d="M16938.09 11369.37c68.3,-107.2 129.88,-218.54 183.96,-334.78l-271 271 87.04 63.78z"/>
   <path class="fil0" d="M14474.43 12714.95c-1607.15,0 -2914.62,-1307.26 -2914.62,-2914.61 0,-1570.27 1248.41,-2854.27 2804.9,-2911.72l0 2883.35 1.68 0 2436.26 1779.94c-0.39,0 -0.39,0 -0.39,0 -531.8,705.75 -1377.63,1163.04 -2327.83,1163.04z"/>
   <rect class="fil0" x="4005.27" y="10135.37" width="5191.79" height="836.79"/>
   <rect class="fil0" x="4004.78" y="11434.05" width="3937.64" height="836.4"/>
   <rect class="fil0" x="4005.23" y="7481.81" width="4295.49" height="836.79"/>
   <rect class="fil0" x="4004.78" y="8780.13" width="3937.64" height="836.99"/>
  </g>
 </g>
</svg>
