<?xml version="1.0" encoding="UTF-8"?>
<!DOCTYPE svg PUBLIC "-//W3C//DTD SVG 1.1//EN" "http://www.w3.org/Graphics/SVG/1.1/DTD/svg11.dtd">
<!-- Creator: CorelDRAW 2019 (64-Bit) -->
<svg xmlns="http://www.w3.org/2000/svg" xml:space="preserve" width="215.9mm" height="279.4mm" version="1.1" style="shape-rendering:geometricPrecision; text-rendering:geometricPrecision; image-rendering:optimizeQuality; fill-rule:evenodd; clip-rule:evenodd"
viewBox="0 0 21590 27940"
 xmlns:xlink="http://www.w3.org/1999/xlink">
 <defs>
  <style type="text/css">
   <![CDATA[
    .fil0 {fill:#28281E}
   ]]>
  </style>
 </defs>
 <g id="Capa_x0020_1">
  <metadata id="CorelCorpID_0Corel-Layer"/>
  <g id="_2680355916976">
   <path class="fil0" d="M3094.77 11864.85l1427.37 7194.52c34.21,172.53 185.47,296.52 361.06,296.52l4489.2 0c175.59,0 326.85,-123.99 361.06,-296.52l1427.31 -7194.29c396.77,-48.65 706.18,-383.94 706.18,-793.54 -10.23,-45.76 190.9,-2117.71 -1598.4,-3707.16l943.88 -3561.78c52,-196.22 -65.06,-397.81 -261.45,-449.93 -197.32,-52.11 -398.21,65 -450.22,261.63l-867.43 3273.46c-727.67,-455.58 -1584.65,-722.98 -2504.66,-722.98 -2612.77,0 -4738.4,2125.57 -4738.4,4738.57l0 168.19c0,408.96 308.54,743.85 704.5,793.31zm8036.07 -956.42l0 163.11c0,37.79 -29.46,67.26 -67.19,67.26 -122.49,0 -1833.62,0 -1795.31,0l79.5 -299.76 1715.81 0c38.42,0 66.67,29.12 67.19,69.39zm-2624.03 230.37c-2416.14,0 -3682.02,0 -5313.07,0 -37.73,0 -67.37,-29.47 -67.37,-67.26l0 -163.11c0.52,-40.27 28.89,-69.39 67.37,-69.39l5392.46 0 -79.39 299.76zm563.29 7480.99l-3884.6 0 -1338.33 -6744.95 4464.58 0 -1081.51 4081.28c-51.94,196.22 65.06,397.86 261.45,449.98 198.47,51.89 398.5,-66.39 450.16,-261.68l1131.48 -4269.58 1335.1 0 -1338.33 6744.95zm1980.43 -8516.86l-1507.63 0 510.02 -1924.5c493.32,529.14 847.79,1189.32 997.61,1924.5zm-3921.86 -3202.05c858.53,0 1653.98,272.77 2306.48,734.78l-653.83 2467.27 -5574.63 0c371.8,-1824.77 1989.04,-3202.05 3921.98,-3202.05z"/>
   <path class="fil0" d="M16923.65 14885.36c-536.48,-215.46 -1162.22,33.68 -1383.63,590.56 -105.68,262.72 -102.39,551.73 9.53,813.76 111.8,261.62 318.13,463.96 580.85,569.64 536.08,215.34 1160.49,-35.48 1384.16,-591.6 214.07,-538.56 -38.95,-1163.03 -590.91,-1382.36zm-92.56 1108.84c-64.71,160.68 -262.9,247.29 -426.12,182.23 -165.48,-66.5 -249.67,-258.68 -181.49,-426.99 66.8,-168.54 257.12,-248.62 426.64,-180.79 169.64,67.6 248.92,254.87 180.97,425.55z"/>
   <path class="fil0" d="M19833 18505.85c89.84,-38.43 160.62,-110.71 196.96,-201.25 36.46,-90.59 35.42,-191.94 -3.06,-281.84 -1546.4,-3622.63 -2569.31,-6018.96 -4491.1,-10520.98 -44.49,-153.29 -180.1,-267.4 -347.77,-267.4l-3.64 0c-0.64,0 -1.22,0.35 -1.85,0.35 -0.7,0 -1.22,-0.35 -1.91,-0.35l-3.58 0c-0.41,0 -0.75,0.29 -1.21,0.29 -0.41,-0.06 -0.81,-0.29 -1.33,-0.29 -126.71,1.56 -279.42,79.91 -339.45,235.74 -437.85,1089.65 1585.97,-3947.35 -4281.77,10656.87 -36.52,90.6 -35.42,191.94 2.83,281.85 38.3,89.79 110.53,160.97 201.13,197.31 1413.27,568.55 2896.74,856.81 4409.17,856.81 1608.22,0 3178.36,-322.01 4666.58,-957.11zm-7951.72 -1706.5l3307.61 -8235.13 3484.19 8162.03c-2169.37,826.76 -4565.81,871.37 -6791.8,73.1zm-275.67 685.72c2388.99,863.62 4995.23,835.02 7356.71,-78.76l239.84 561.85c-2503.85,974.38 -5298.68,1009.86 -7826.16,86.95l229.61 -570.04z"/>
   <path class="fil0" d="M14480.64 14488.59c-536.07,-215.34 -1160.43,35.53 -1384.1,591.6 -216.55,544.16 48.48,1164.19 591.02,1382.36 537.75,215.98 1162.29,-34.9 1383.46,-590.15 106.38,-264.57 102.97,-554.62 -9.36,-817 -111.97,-260.93 -318.65,-462.23 -581.02,-566.81zm-93.08 1110.28c-64.89,162.82 -259.14,246.89 -425.37,180.73 -167.16,-67.19 -248.68,-258.73 -182.24,-425.89 64.08,-159.35 252.32,-251.8 427.22,-181.83 166.87,66.28 248.68,257.06 180.39,426.99z"/>
   <path class="fil0" d="M14304.01 12234.29c-250.36,632.96 58.07,1355.37 689.53,1611.68 629.33,250.82 1352.84,-45.93 1609.32,-689.07 252.67,-635.05 -56.62,-1356.77 -687.4,-1608.39 -625.74,-253.88 -1348.44,38.13 -1611.45,685.78zm683.06 274.21c103.37,-253.93 388.39,-384.05 653.6,-277.05 256.42,102.16 380.88,395.27 278.38,653.02 -99.38,249.15 -405.21,376.37 -650.88,278.55 -256.48,-104.23 -382.1,-399.31 -281.1,-654.52z"/>
  </g>
 </g>
</svg>
