<?xml version="1.0" encoding="UTF-8"?>
<!DOCTYPE svg PUBLIC "-//W3C//DTD SVG 1.1//EN" "http://www.w3.org/Graphics/SVG/1.1/DTD/svg11.dtd">
<!-- Creator: CorelDRAW 2019 (64-Bit) -->
<svg xmlns="http://www.w3.org/2000/svg" xml:space="preserve" width="215.9mm" height="279.4mm" version="1.1" style="shape-rendering:geometricPrecision; text-rendering:geometricPrecision; image-rendering:optimizeQuality; fill-rule:evenodd; clip-rule:evenodd"
viewBox="0 0 21590 27940"
 xmlns:xlink="http://www.w3.org/1999/xlink">
 <defs>
  <style type="text/css">
   <![CDATA[
    .fil0 {fill:#D2FAC0}
   ]]>
  </style>
 </defs>
 <g id="Capa_x0020_1">
  <metadata id="CorelCorpID_0Corel-Layer"/>
  <g id="_2680160694304">
   <path class="fil0" d="M6834.35 2748.01c-91.82,-80.33 -241.02,-68.86 -321.35,22.96 -68.86,80.34 -68.86,218.06 0,298.4l298.39 298.39 -1055.87 0c-126.24,0 -229.53,103.3 -229.53,229.54 0,126.25 103.29,229.54 229.53,229.54l1055.87 0 -298.39 298.4c-91.82,80.33 -103.3,229.53 -22.96,321.35 80.34,91.81 229.54,103.29 321.35,22.95 11.48,-11.47 22.96,-11.47 22.96,-22.95l688.61 -688.61c91.81,-91.82 91.81,-229.54 0,-321.35l-688.61 -688.62z"/>
   <path class="fil0" d="M2082.93 5146.68c0,401.69 241.01,768.95 596.8,929.62l2054.35 941.1c34.43,11.48 57.39,22.96 91.82,22.96 126.24,0 229.54,-103.29 229.54,-229.54l0 -918.15 229.53 0c378.74,0 688.61,-309.87 688.61,-688.61l0 -459.07c0,-126.25 -103.29,-229.54 -229.53,-229.54 -126.25,0 -229.54,103.29 -229.54,229.54l0 459.07c0,126.25 -103.29,229.54 -229.54,229.54l-229.53 0 0 -2754.45c0,-91.81 -57.39,-172.15 -137.73,-206.58l-1549.37 -711.57 1928.11 0c126.24,0 229.54,103.3 229.54,229.54l0 459.08c0,126.24 103.29,229.53 229.53,229.53 126.25,0 229.54,-103.29 229.54,-229.53l0 -459.08c0,-378.73 -309.87,-688.61 -688.61,-688.61l-2524.91 0c-378.74,0 -688.61,309.88 -688.61,688.61l0 3156.14zm459.07 -3156.14c0,-34.43 11.48,-68.86 22.96,-91.81l2042.88 929.62 0 3626.69 -1733.01 -791.9c-195.1,-91.82 -332.83,-286.93 -332.83,-516.46 0,0 0,-3156.14 0,-3156.14z"/>
  </g>
 </g>
</svg>
