<?xml version="1.0" encoding="UTF-8"?>
<!DOCTYPE svg PUBLIC "-//W3C//DTD SVG 1.1//EN" "http://www.w3.org/Graphics/SVG/1.1/DTD/svg11.dtd">
<!-- Creator: CorelDRAW 2019 (64-Bit) -->
<svg xmlns="http://www.w3.org/2000/svg" xml:space="preserve" width="215.9mm" height="279.4mm" version="1.1" style="shape-rendering:geometricPrecision; text-rendering:geometricPrecision; image-rendering:optimizeQuality; fill-rule:evenodd; clip-rule:evenodd"
viewBox="0 0 21590 27940"
 xmlns:xlink="http://www.w3.org/1999/xlink">
 <defs>
  <style type="text/css">
   <![CDATA[
    .fil0 {fill:#28281E}
   ]]>
  </style>
 </defs>
 <g id="Capa_x0020_1">
  <metadata id="CorelCorpID_0Corel-Layer"/>
  <g id="_2680160694304">
   <path class="fil0" d="M17738.67 7826c-280.41,-245.32 -736.05,-210.29 -981.37,70.12 -210.29,245.34 -210.29,665.93 0,911.27l911.25 911.25 -3224.5 0c-385.52,0 -700.96,315.47 -700.96,700.99 0,385.55 315.44,700.99 700.96,700.99l3224.5 0 -911.25 911.28c-280.4,245.32 -315.46,700.95 -70.11,981.36 245.34,280.38 700.98,315.44 981.36,70.09 35.06,-35.03 70.12,-35.03 70.12,-70.09l2102.93 -2102.93c280.38,-280.41 280.38,-700.99 0,-981.37l-2102.93 -2102.96z"/>
   <path class="fil0" d="M3228.39 15151.25c0,1226.72 736.02,2348.29 1822.56,2838.95l6273.74 2874.01c105.15,35.06 175.26,70.12 280.41,70.12 385.52,0 700.99,-315.43 700.99,-700.99l0 -2803.92 700.95 0c1156.63,0 2102.94,-946.31 2102.94,-2102.93l0 -1401.95c0,-385.55 -315.44,-700.99 -700.96,-700.99 -385.55,0 -700.99,315.44 -700.99,700.99l0 1401.95c0,385.55 -315.43,700.98 -700.99,700.98l-700.95 0 0 -8411.76c0,-280.38 -175.27,-525.73 -420.62,-630.87l-4731.59 -2173.05 5888.22 0c385.52,0 700.99,315.46 700.99,700.98l0 1401.98c0,385.52 315.44,700.96 700.96,700.96 385.55,0 700.99,-315.44 700.99,-700.96l0 -1401.98c0,-1156.59 -946.31,-2102.93 -2102.94,-2102.93l-7710.78 0c-1156.62,0 -2102.93,946.34 -2102.93,2102.93l0 9638.48zm1401.95 -9638.48c0,-105.14 35.05,-210.29 70.11,-280.37l6238.72 2838.95 0 11075.48 -5292.41 -2418.37c-595.81,-280.4 -1016.42,-876.25 -1016.42,-1577.21 0,0 0,-9638.48 0,-9638.48z"/>
  </g>
 </g>
</svg>
