<?xml version="1.0" encoding="UTF-8"?>
<!DOCTYPE svg PUBLIC "-//W3C//DTD SVG 1.1//EN" "http://www.w3.org/Graphics/SVG/1.1/DTD/svg11.dtd">
<!-- Creator: CorelDRAW 2019 (64-Bit) -->
<svg xmlns="http://www.w3.org/2000/svg" xml:space="preserve" width="215.9mm" height="279.4mm" version="1.1" style="shape-rendering:geometricPrecision; text-rendering:geometricPrecision; image-rendering:optimizeQuality; fill-rule:evenodd; clip-rule:evenodd"
viewBox="0 0 21590 27940"
 xmlns:xlink="http://www.w3.org/1999/xlink">
 <defs>
  <style type="text/css">
   <![CDATA[
    .fil0 {fill:#1E2828}
   ]]>
  </style>
 </defs>
 <g id="Capa_x0020_1">
  <metadata id="CorelCorpID_0Corel-Layer"/>
  <g id="_2680161799296">
   <path class="fil0" d="M2661.61 4070.3l995.3 0c29.86,0 49.76,-19.91 49.76,-49.76 0,-29.86 -19.9,-49.77 -49.76,-49.77l-995.3 0c-29.86,0 -49.77,19.91 -49.77,49.77 0,29.85 19.91,49.76 49.77,49.76z"/>
   <path class="fil0" d="M2661.61 4368.89l995.3 0c29.86,0 49.76,-19.91 49.76,-49.76 0,-29.86 -19.9,-49.77 -49.76,-49.77l-995.3 0c-29.86,0 -49.77,19.91 -49.77,49.77 0,29.85 19.91,49.76 49.77,49.76z"/>
   <path class="fil0" d="M2661.61 3473.12l995.3 0c29.86,0 49.76,-19.91 49.76,-49.76 0,-29.86 -19.9,-49.77 -49.76,-49.77l-995.3 0c-29.86,0 -49.77,19.91 -49.77,49.77 0,29.85 19.91,49.76 49.77,49.76z"/>
   <path class="fil0" d="M2661.61 3771.71l995.3 0c29.86,0 49.76,-19.91 49.76,-49.76 0,-29.86 -19.9,-49.77 -49.76,-49.77l-995.3 0c-29.86,0 -49.77,19.91 -49.77,49.76 0,29.86 19.91,49.77 49.77,49.77z"/>
   <path class="fil0" d="M2263.49 5264.66l1791.54 0c84.6,0 149.29,-64.69 149.29,-149.29l0 -2488.25c0,-84.6 -64.69,-149.3 -149.29,-149.3l-1791.54 0c-84.6,0 -149.3,64.7 -149.3,149.3l0 2488.25c0,84.6 64.7,149.29 149.3,149.29zm-49.77 -2637.54c0,-29.86 19.91,-49.77 49.77,-49.77l1791.54 0c29.86,0 49.76,19.91 49.76,49.77l0 2488.25c0,29.85 -19.9,49.76 -49.76,49.76l-1791.54 0c-29.86,0 -49.77,-19.91 -49.77,-49.76l0 -2488.25z"/>
   <path class="fil0" d="M4851.27 2477.82l-497.65 0c-29.86,0 -49.77,19.91 -49.77,49.76l0 2289.19c0,9.96 4.98,19.91 9.96,24.89l248.82 398.12c14.93,24.88 44.79,29.86 69.67,14.93 4.98,-4.98 9.96,-9.96 14.93,-14.93l248.83 -398.12c4.97,-9.96 9.95,-14.93 4.97,-24.89l0 -2289.18c0,-29.86 -19.9,-49.77 -49.76,-49.77zm-447.89 99.53l398.12 0 0 199.06 -398.12 0 0 -199.06zm398.12 2224.5l-199.06 318.49 -199.06 -318.49 0 -1925.91 398.12 0 0 1925.91z"/>
  </g>
 </g>
</svg>
