<?xml version="1.0" encoding="UTF-8"?>
<!DOCTYPE svg PUBLIC "-//W3C//DTD SVG 1.1//EN" "http://www.w3.org/Graphics/SVG/1.1/DTD/svg11.dtd">
<!-- Creator: CorelDRAW 2019 (64-Bit) -->
<svg xmlns="http://www.w3.org/2000/svg" xml:space="preserve" width="215.9mm" height="279.4mm" version="1.1" style="shape-rendering:geometricPrecision; text-rendering:geometricPrecision; image-rendering:optimizeQuality; fill-rule:evenodd; clip-rule:evenodd"
viewBox="0 0 21590 27940"
 xmlns:xlink="http://www.w3.org/1999/xlink">
 <defs>
  <style type="text/css">
   <![CDATA[
    .fil0 {fill:#28281E}
   ]]>
  </style>
 </defs>
 <g id="Capa_x0020_1">
  <metadata id="CorelCorpID_0Corel-Layer"/>
  <g id="_2680487949360">
   <path class="fil0" d="M5991.23 13164.04l5598.43 0c167.95,0 279.89,-111.99 279.89,-279.89 0,-167.96 -111.94,-279.95 -279.89,-279.95l-5598.43 0c-167.96,0 -279.95,111.99 -279.95,279.95 0,167.9 111.99,279.89 279.95,279.89z"/>
   <path class="fil0" d="M5991.23 14843.57l5598.43 0c167.95,0 279.89,-111.99 279.89,-279.9 0,-167.95 -111.94,-279.95 -279.89,-279.95l-5598.43 0c-167.96,0 -279.95,112 -279.95,279.95 0,167.91 111.99,279.9 279.95,279.9z"/>
   <path class="fil0" d="M5991.23 9804.98l5598.43 0c167.95,0 279.89,-111.99 279.89,-279.89 0,-167.96 -111.94,-279.95 -279.89,-279.95l-5598.43 0c-167.96,0 -279.95,111.99 -279.95,279.95 0,167.9 111.99,279.89 279.95,279.89z"/>
   <path class="fil0" d="M5991.23 11484.51l5598.43 0c167.95,0 279.89,-111.99 279.89,-279.89 0,-167.96 -111.94,-279.95 -279.89,-279.95l-5598.43 0c-167.96,0 -279.95,111.99 -279.95,279.89 0,167.96 111.99,279.95 279.95,279.95z"/>
   <path class="fil0" d="M3751.86 19882.15l10077.17 0c475.86,0 839.73,-363.87 839.73,-839.74l0 -13996.06c0,-475.86 -363.87,-839.79 -839.73,-839.79l-10077.17 0c-475.86,0 -839.79,363.93 -839.79,839.79l0 13996.06c0,475.87 363.93,839.74 839.79,839.74zm-279.95 -14835.8c0,-167.96 111.99,-279.95 279.95,-279.95l10077.17 0c167.95,0 279.89,111.99 279.89,279.95l0 13996.06c0,167.91 -111.94,279.9 -279.89,279.9l-10077.17 0c-167.96,0 -279.95,-111.99 -279.95,-279.9l0 -13996.06z"/>
   <path class="fil0" d="M18307.77 4206.56l-2799.22 0c-167.95,0 -279.95,111.99 -279.95,279.89l0 12876.38c0,56.02 28.02,111.99 56.03,140l1399.58 2239.37c83.98,139.95 251.93,167.96 391.88,83.98 28.01,-28.01 56.02,-56.02 83.98,-83.98l1399.63 -2239.37c27.96,-56.02 55.97,-83.98 27.96,-140l0 -12876.32c0,-167.96 -111.94,-279.95 -279.89,-279.95zm-2519.32 559.84l2239.37 0 0 1119.69 -2239.37 0 0 -1119.69zm2239.37 12512.51l-1119.69 1791.46 -1119.68 -1791.46 0 -10832.98 2239.37 0 0 10832.98z"/>
  </g>
 </g>
</svg>
