<svg xmlns="http://www.w3.org/2000/svg" xmlns:xlink="http://www.w3.org/1999/xlink" xml:space="preserve" version="1.1" style="shape-rendering:geometricPrecision;text-rendering:geometricPrecision;image-rendering:optimizeQuality;" viewBox="0 0 846.66 1058.325" x="0px" y="0px" fill-rule="evenodd" clip-rule="evenodd"><defs><style type="text/css">
   
    .fil0 {fill:black}
   
  </style></defs><g><path class="fil0" d="M368.57 101.73l323.52 0c33.56,0 61.1,27.55 61.1,61.11l0 71.03c0,33.58 -27.54,61.11 -61.1,61.11l-323.52 0c-33.56,0 -61.11,-27.53 -61.11,-61.11l0 -71.03c0,-33.56 27.55,-61.11 61.11,-61.11zm0 449.94l323.52 0c33.56,0 61.1,27.55 61.1,61.11l0 71.03c0,33.56 -27.54,61.11 -61.1,61.11l-323.52 0c-33.56,0 -61.11,-27.55 -61.11,-61.11l0 -71.03c0,-33.56 27.55,-61.11 61.11,-61.11zm-214 0l71.04 0c33.56,0 61.11,27.55 61.11,61.11l0 71.03c0,33.56 -27.55,61.11 -61.11,61.11l-71.04 0c-33.57,0 -61.1,-27.55 -61.1,-61.11l0 -71.03c0,-33.56 27.53,-61.11 61.1,-61.11zm71.04 44.55l-71.04 0c-9.18,0 -16.55,7.37 -16.55,16.56l0 71.03c0,9.18 7.37,16.54 16.55,16.54l71.04 0c9.12,0 16.54,-7.41 16.54,-16.54l0 -71.03c0,-9.19 -7.36,-16.56 -16.54,-16.56zm466.48 0l-323.52 0c-9.19,0 -16.54,7.37 -16.54,16.56l0 71.03c0,9.18 7.35,16.54 16.54,16.54l323.52 0c9.12,0 16.54,-7.41 16.54,-16.54l0 -71.03c0,-9.19 -7.36,-16.56 -16.54,-16.56zm-323.52 -269.55l323.52 0c33.56,0 61.1,27.55 61.1,61.11l0 71.03c0,33.56 -27.54,61.11 -61.1,61.11l-323.52 0c-33.56,0 -61.11,-27.55 -61.11,-61.11l0 -71.03c0,-33.56 27.55,-61.11 61.11,-61.11zm-214 0l71.04 0c33.56,0 61.11,27.55 61.11,61.11l0 71.03c0,33.56 -27.55,61.11 -61.11,61.11l-71.04 0c-33.57,0 -61.1,-27.55 -61.1,-61.11l0 -71.03c0,-33.56 27.53,-61.11 61.1,-61.11zm71.04 44.57l-71.04 0c-9.18,0 -16.55,7.36 -16.55,16.54l0 71.03c0,9.19 7.37,16.56 16.55,16.56l71.04 0c9.12,0 16.54,-7.43 16.54,-16.56l0 -71.03c0,-9.18 -7.36,-16.54 -16.54,-16.54zm466.48 0l-323.52 0c-9.19,0 -16.54,7.36 -16.54,16.54l0 71.03c0,9.19 7.35,16.56 16.54,16.56l323.52 0c9.12,0 16.54,-7.43 16.54,-16.56l0 -71.03c0,-9.18 -7.36,-16.54 -16.54,-16.54zm-537.52 -269.51l71.04 0c33.56,0 61.11,27.55 61.11,61.11l0 71.03c0,33.58 -27.55,61.11 -61.11,61.11l-71.04 0c-33.57,0 -61.1,-27.53 -61.1,-61.11l0 -71.03c0,-33.56 27.53,-61.11 61.1,-61.11zm71.04 44.57l-71.04 0c-9.18,0 -16.55,7.36 -16.55,16.54l0 71.03c0,9.19 7.37,16.56 16.55,16.56l71.04 0c9.12,0 16.54,-7.43 16.54,-16.56l0 -71.03c0,-9.18 -7.36,-16.54 -16.54,-16.54zm466.48 0l-323.52 0c-9.19,0 -16.54,7.36 -16.54,16.54l0 71.03c0,9.19 7.35,16.56 16.54,16.56l323.52 0c9.12,0 16.54,-7.43 16.54,-16.56l0 -71.03c0,-9.18 -7.36,-16.54 -16.54,-16.54z"/></g><text x="0" y="861.66" fill="#000000" font-size="5px" font-weight="bold" font-family="'Helvetica Neue', Helvetica, Arial-Unicode, Arial, Sans-serif">Created by Fahmi</text><text x="0" y="866.66" fill="#000000" font-size="5px" font-weight="bold" font-family="'Helvetica Neue', Helvetica, Arial-Unicode, Arial, Sans-serif">from the Noun Project</text></svg>