<svg xmlns="http://www.w3.org/2000/svg" xmlns:xlink="http://www.w3.org/1999/xlink" version="1.1" x="0px" y="0px" viewBox="0 0 50 62.5" enable-background="new 0 0 50 50" xml:space="preserve"><g><path d="M2.91417,26.25863l3.8783,19.5478c0.09281,0.4687,0.5039,0.8056,0.981,0.8056h12.1972c0.4771,0,0.8882-0.3369,0.981-0.8056   l3.8782-19.5472c1.078-0.1322,1.9187-1.0432,1.9187-2.156c-0.0279-0.1244,0.5186-5.754-4.3429-10.0725l2.5645-9.6775   c0.1412-0.5332-0.1767-1.081-0.7104-1.2226c-0.5361-0.1416-1.082,0.1767-1.2232,0.7109l-2.3569,8.8941   c-1.9771-1.2378-4.3056-1.9644-6.8052-1.9644c-7.0991,0-12.8745,5.7754-12.8745,12.875v0.457   C0.99997,25.21433,1.83828,26.12423,2.91417,26.25863z M24.74857,23.65993v0.4433c0,0.1026-0.0801,0.1826-0.1827,0.1826   c-0.3327,0-4.982,0-4.8778,0l0.2159-0.8144h4.6619C24.67037,23.47143,24.74707,23.55053,24.74857,23.65993z M17.61887,24.28583   c-6.5647,0-10.0042,0-14.4358,0c-0.1025,0-0.1831-0.08-0.1831-0.1826v-0.4433c0.0015-0.1094,0.0786-0.1885,0.1831-0.1885h14.6516   L17.61887,24.28583z M19.14937,44.61203H8.59477l-3.6363-18.3262h12.1305l-2.9386,11.0889   c-0.14109,0.5332,0.1768,1.0811,0.7105,1.2227c0.5392,0.1409,1.0827-0.1804,1.2231-0.711l3.0742-11.6006h3.6275L19.14937,44.61203z    M24.53028,21.47143h-4.09631l1.3857-5.229C23.16007,17.68013,24.12328,19.47383,24.53028,21.47143z M13.87447,12.77123   c2.3327,0,4.4939,0.7412,6.26681,1.9965l-1.77651,6.7037H3.21828C4.22847,16.51343,8.62257,12.77123,13.87447,12.77123z"/><path d="M40.48777,34.46553c-1.4576-0.5855-3.1578,0.0914-3.7593,1.6045c-0.2871,0.7139-0.2783,1.499,0.0259,2.211   c0.3037,0.7109,0.8643,1.2607,1.5781,1.5478c1.4566,0.5851,3.1531-0.0964,3.76081-1.6074   C42.67497,36.75803,41.98747,35.06143,40.48777,34.46553z M40.23637,37.47823c-0.1758,0.4366-0.7144,0.6719-1.1578,0.4951   c-0.4497-0.1807-0.6783-0.7028-0.4931-1.1601c0.1814-0.4579,0.6985-0.6755,1.1592-0.4912   C40.20557,36.50563,40.42087,37.01443,40.23637,37.47823z"/><path d="M48.39257,44.30243c0.2441-0.1044,0.4365-0.3007,0.5352-0.5468c0.0991-0.2461,0.0962-0.5215-0.0083-0.7657   c-4.2017-9.8429-6.981-16.3537-12.2026-28.5859c-0.1208-0.4165-0.4892-0.7266-0.9449-0.7266h-0.0098   c-0.0018,0-0.0033,0.001-0.0051,0.001s-0.0033-0.001-0.0051-0.001h-0.0098c-0.0011,0-0.002,0.0008-0.0032,0.0008   c-0.0012-0.0001-0.0023-0.0008-0.0036-0.0008c-0.3444,0.0043-0.7592,0.2171-0.9224,0.6405   c-1.1896,2.9607,4.3091-10.7251-11.6338,28.9552c-0.0991,0.2461-0.0962,0.5215,0.0078,0.7657   c0.104,0.2441,0.30031,0.4375,0.5464,0.5361c3.8399,1.5449,7.8706,2.3281,11.98,2.3281   C40.08297,46.90303,44.34907,46.02803,48.39257,44.30243z M26.78747,39.66583l8.9869-22.3751l9.4667,22.1765   C39.34687,41.71363,32.83557,41.83483,26.78747,39.66583z M26.03857,41.52903c6.4909,2.3464,13.5722,2.2687,19.9884-0.214   l0.6517,1.5265c-6.8031,2.6475-14.3968,2.7439-21.2641,0.2363L26.03857,41.52903z"/><path d="M33.85007,33.38743c-1.4565-0.5851-3.153,0.0965-3.7607,1.6074c-0.5884,1.4785,0.1318,3.1631,1.60591,3.7559   c1.461,0.5868,3.15789-0.0948,3.75879-1.6035c0.2891-0.7188,0.2798-1.5069-0.0254-2.2198   C35.12447,34.21853,34.56297,33.67163,33.85007,33.38743z M33.59717,36.40403c-0.1763,0.4424-0.7041,0.6709-1.1558,0.4912   c-0.45409-0.1826-0.6757-0.7031-0.49509-1.1572c0.1741-0.433,0.68549-0.6842,1.16069-0.4941   C33.56047,35.42403,33.78277,35.94243,33.59717,36.40403z"/><path d="M33.37007,27.26243c-0.6801,1.7197,0.1578,3.6826,1.8736,4.3789c1.7099,0.6815,3.6757-0.1247,4.3725-1.8721   c0.6866-1.7255-0.1538-3.6865-1.8676-4.3701C36.04828,24.70923,34.08477,25.50273,33.37007,27.26243z M35.22607,28.00753   c0.2809-0.6901,1.0553-1.0436,1.7759-0.7529c0.6966,0.2776,1.0348,1.074,0.75631,1.7744c-0.27,0.6768-1.101,1.0225-1.76851,0.7568   C35.29297,29.50263,34.95167,28.70093,35.22607,28.00753z"/></g><text x="0" y="65" fill="#000000" font-size="5px" font-weight="bold" font-family="'Helvetica Neue', Helvetica, Arial-Unicode, Arial, Sans-serif">Created by Vectors Point</text><text x="0" y="70" fill="#000000" font-size="5px" font-weight="bold" font-family="'Helvetica Neue', Helvetica, Arial-Unicode, Arial, Sans-serif">from the Noun Project</text></svg>