<svg xmlns="http://www.w3.org/2000/svg" xmlns:xlink="http://www.w3.org/1999/xlink" version="1.1" x="0px" y="0px" viewBox="0 0 64 80" style="enable-background:new 0 0 64 64;" xml:space="preserve"><title>Artboard 8</title><path d="M15,36h20c0.6,0,1-0.4,1-1s-0.4-1-1-1H15c-0.6,0-1,0.4-1,1S14.4,36,15,36z"/><path d="M15,42h20c0.6,0,1-0.4,1-1s-0.4-1-1-1H15c-0.6,0-1,0.4-1,1S14.4,42,15,42z"/><path d="M15,24h20c0.6,0,1-0.4,1-1s-0.4-1-1-1H15c-0.6,0-1,0.4-1,1S14.4,24,15,24z"/><path d="M15,30h20c0.6,0,1-0.4,1-1s-0.4-1-1-1H15c-0.6,0-1,0.4-1,1S14.4,30,15,30z"/><path d="M7,60h36c1.7,0,3-1.3,3-3V7c0-1.7-1.3-3-3-3H7C5.3,4,4,5.3,4,7v50C4,58.7,5.3,60,7,60z M6,7c0-0.6,0.4-1,1-1h36  c0.6,0,1,0.4,1,1v50c0,0.6-0.4,1-1,1H7c-0.6,0-1-0.4-1-1V7z"/><path d="M59,4H49c-0.6,0-1,0.4-1,1v46c0,0.2,0.1,0.4,0.2,0.5l5,8c0.3,0.5,0.9,0.6,1.4,0.3c0.1-0.1,0.2-0.2,0.3-0.3l5-8  c0.1-0.2,0.2-0.3,0.1-0.5V5C60,4.4,59.6,4,59,4z M50,6h8v4h-8V6z M58,50.7l-4,6.4l-4-6.4V12h8V50.7z"/><text x="0" y="79" fill="#000000" font-size="5px" font-weight="bold" font-family="'Helvetica Neue', Helvetica, Arial-Unicode, Arial, Sans-serif">Created by Saurus Icon</text><text x="0" y="84" fill="#000000" font-size="5px" font-weight="bold" font-family="'Helvetica Neue', Helvetica, Arial-Unicode, Arial, Sans-serif">from the Noun Project</text></svg>