<svg xmlns="http://www.w3.org/2000/svg" data-name="Layer 1" viewBox="0 0 128 160" x="0px" y="0px"><title>miscellaneous 74 expandlines</title><path d="M121.29315,21.15244,90.35391,12.54476a21.06172,21.06172,0,0,0-14.41025,1.8565L4.49789,56.15934a9.03735,9.03735,0,0,0-3.297,12.30017l24.9976,43.08527A9.02878,9.02878,0,0,0,38.51,114.78317l72.59523-41.886a21.27533,21.27533,0,0,0,8.807-11.43491l7.79035-29.27138A9.1118,9.1118,0,0,0,121.29315,21.15244Zm2.54356,10.01006-7.78987,29.27138a17.29723,17.29723,0,0,1-6.94022,8.99832l-72.5962,41.886a5.0158,5.0158,0,0,1-6.85135-1.78033L4.661,66.45164a5.0291,5.0291,0,0,1,1.85554-6.83907L77.96229,17.85449a17.093,17.093,0,0,1,11.32028-1.4561l30.93827,8.60768A5.09777,5.09777,0,0,1,123.83671,31.1625Z"/><path d="M111.64969,29.48862A8.00024,8.00024,0,1,0,106.985,44.00078a8.14579,8.14579,0,0,0,1.32818-.10938,7.99954,7.99954,0,0,0,3.33656-14.40277Zm-1.39508,8.83913a4.00033,4.00033,0,0,1-6.50954-4.65151l.00049-.001a3.97724,3.97724,0,0,1,2.59874-1.62114,4.06858,4.06858,0,0,1,.66751-.05567,3.96335,3.96335,0,0,1,2.31162.74416A4.00853,4.00853,0,0,1,110.25462,38.32776Z"/><path d="M84.76481,28.596,83.6803,26.91531a2,2,0,1,0-3.36146,2.168l1.08452,1.68071a2,2,0,1,0,3.36146-2.168Z"/><path d="M88.5594,34.478l-1.084-1.68071a2,2,0,0,0-3.36146,2.168l1.084,1.68071a2,2,0,0,0,3.36146-2.168Z"/><path d="M99.94463,52.125l-1.084-1.68071a2,2,0,0,0-3.36146,2.168l1.084,1.68071a2,2,0,0,0,3.36146-2.168Z"/><path d="M92.35448,40.36l-1.084-1.68071a2,2,0,0,0-3.36146,2.168l1.084,1.68071a2,2,0,0,0,3.36146-2.168Z"/><path d="M102.65568,56.32634a2,2,0,0,0-3.36146,2.168l1.02543,1.58989a2,2,0,0,0,3.36146-2.168Z"/><path d="M96.14955,46.243l-1.084-1.68071a2,2,0,0,0-3.36146,2.168l1.084,1.68071a2,2,0,0,0,3.36146-2.168Z"/><path d="M34.147,83.24414l-1.084-1.68071a2,2,0,0,0-3.36146,2.168l1.084,1.68071a2,2,0,0,0,3.36146-2.168Z"/><path d="M26.55689,71.47914l-1.084-1.68071a2,2,0,0,0-3.36146,2.168l1.084,1.68071a2,2,0,0,0,3.36146-2.168Z"/><path d="M30.352,77.36115l-1.084-1.68071a2,2,0,0,0-3.36146,2.168l1.084,1.68071a2,2,0,0,0,3.36146-2.168Z"/><path d="M22.7623,65.59713l-1.08452-1.68071a2,2,0,1,0-3.36146,2.168l1.08452,1.68071a2,2,0,1,0,3.36146-2.168Z"/><path d="M37.94211,89.12615l-1.084-1.68071a2,2,0,0,0-3.36146,2.168l1.084,1.68071a2,2,0,0,0,3.36146-2.168Z"/><path d="M40.65316,93.32745a2,2,0,0,0-3.36146,2.168l1.02543,1.58989a2,2,0,0,0,3.36146-2.168Z"/><path d="M58.99863,51a7.00028,7.00028,0,1,0-7.00028,7.00021A7.00842,7.00842,0,0,0,58.99863,51ZM48.99823,51a3.00012,3.00012,0,1,1,3.00012,3.00009A3.00339,3.00339,0,0,1,48.99823,51Z"/><path d="M67.999,66.00046a7.00021,7.00021,0,1,0,7.00028,7.00021A7.00842,7.00842,0,0,0,67.999,66.00046Zm0,10.0003a3.00009,3.00009,0,1,1,3.00012-3.00009A3.00339,3.00339,0,0,1,67.999,76.00076Z"/><path d="M71.16172,46.37194a2.002,2.002,0,0,0-2.79015.46583L48.37076,74.83861a1.99984,1.99984,0,1,0,3.255,2.32429L71.62659,49.16206A2.00012,2.00012,0,0,0,71.16172,46.37194Z"/><text x="0" y="143" fill="#000000" font-size="5px" font-weight="bold" font-family="'Helvetica Neue', Helvetica, Arial-Unicode, Arial, Sans-serif">Created by priyanka</text><text x="0" y="148" fill="#000000" font-size="5px" font-weight="bold" font-family="'Helvetica Neue', Helvetica, Arial-Unicode, Arial, Sans-serif">from the Noun Project</text></svg>