<svg xmlns="http://www.w3.org/2000/svg" xmlns:xlink="http://www.w3.org/1999/xlink" version="1.1" x="0px" y="0px" viewBox="0 0 64 80" enable-background="new 0 0 64 64" xml:space="preserve"><g><g><path fill-rule="evenodd" clip-rule="evenodd" d="M44.677,24.079c-0.429,3.374,3.512,1.194,5.761,0.24    c1.539-0.653,2.797-1.463,2.399-2.88C51.146,19.578,44.917,22.194,44.677,24.079z"/><path fill-rule="evenodd" clip-rule="evenodd" d="M18.037,36.799c2.067,0.381,2.513-2.205,4.8-2.159c0-0.561,0-1.12,0-1.68    c-1.283-0.603-2.506,0.063-3.36-0.72C17.116,32.662,15.114,36.262,18.037,36.799z"/><path fill-rule="evenodd" clip-rule="evenodd" d="M36.517,14.239c-2.637,1.443-4.613,3.546-6.24,6    c-0.388,0.067-0.413-0.227-0.72-0.24c-0.447,1.415-1.122,1.531-2.4,2.16c0.074,0.798,0.833-1.027,0.72,0.24    c-0.383,1.296-2.702,0.658-2.88,2.16c0.368-1.158-1.839-0.204-1.92,0.96c-2.765-0.647-7.156,1.793-9.36,3.6    c-0.695-0.134,0.368-0.374,0.24-0.72c-3.259,0.581-4.361,3.318-5.52,6c0,0.64,0,1.28,0,1.92c0.321,5.328,6.49,8.83,11.04,6.24    c3.25,3.282,5.201,6.451,8.4,9.6c2.966-1.136,6.173-0.986,7.68-3.84c-1.909-3.69-5.628-5.571-7.439-9.36    c4.792-2.899,11.573,0.354,17.76-0.239c-0.538-4.232-2.728-8.297-4.32-12.48C39.988,22.119,38.863,17.689,36.517,14.239z     M24.517,38.239c-0.335,2.46,2.248,2.762,2.88,4.08c0.634,1.324-0.039,2.506,1.68,2.4c-0.134,0.542-0.375-0.291-0.72,0.239    c0.792-0.059,1.211,1.491,1.68,0.96c0.016,0.521,0.386,1.465,0.24,1.92c-1.233,0.647-1.719-0.063-2.4,0    c-0.795-0.234,0.268-0.474,0.24-0.72c-2.364-2.757-4.575-5.665-7.2-8.16c-3.533,0.824-6.012,2.047-8.4-0.72    c-0.312-0.685,0.152-1.625-0.72-2.16c1.075-7.638,15.217-5.494,18.24-12.48c2.292-1.708,4.064-3.935,5.76-6.24    c2.522,6.358,5.05,12.71,7.44,19.2C36.403,35.995,28.687,34.188,24.517,38.239z"/><path fill-rule="evenodd" clip-rule="evenodd" d="M54.517,33.68c-1.838-0.992-6.139-3.331-6.479,0.72    c0.784,0.785,7.587,3.864,7.92,1.68C55.871,34.922,53.329,33.895,54.517,33.68z"/><path fill-rule="evenodd" clip-rule="evenodd" d="M44.917,15.679c0.04-2.008,2.976-5.434,0.72-7.44c-0.399,0-0.8,0-1.199,0    c-0.637,1.792-3.481,5.341-1.921,8.16C44.008,16.746,43.768,14.991,44.917,15.679z"/></g></g><text x="0" y="79" fill="#000000" font-size="5px" font-weight="bold" font-family="'Helvetica Neue', Helvetica, Arial-Unicode, Arial, Sans-serif">Created by Ralf Schmitzer</text><text x="0" y="84" fill="#000000" font-size="5px" font-weight="bold" font-family="'Helvetica Neue', Helvetica, Arial-Unicode, Arial, Sans-serif">from the Noun Project</text></svg>