<svg xmlns="http://www.w3.org/2000/svg" xmlns:xlink="http://www.w3.org/1999/xlink" version="1.1" x="0px" y="0px" viewBox="0 0 100 125" enable-background="new 0 0 100 100" xml:space="preserve"><g><path d="M87.743,82.641H12.257c-2.634,0-4.776-2.143-4.776-4.775V22.137c0-2.634,2.143-4.777,4.776-4.777h75.486   c2.634,0,4.776,2.144,4.776,4.777v55.728C92.52,80.498,90.377,82.641,87.743,82.641z M12.257,19.271   c-1.58,0-2.866,1.285-2.866,2.866v55.728c0,1.58,1.286,2.865,2.866,2.865h75.486c1.579,0,2.866-1.285,2.866-2.865V22.137   c0-1.581-1.287-2.866-2.866-2.866H12.257z"/></g><polyline points="82.334,72.885 82.334,61.838 63.75,58.5 44.875,68 27.625,66.125 14.75,72.885 "/><path d="M72.501,38.451l8.711-8.711c-0.151-0.245-0.31-0.484-0.476-0.718l-8.926,8.925L72.501,38.451z"/><path d="M71.023,37.373l9.129-9.13c-0.178-0.219-0.361-0.43-0.553-0.638l-9.264,9.265L71.023,37.373z"/><path d="M69.645,33.645l7.896-7.895c-0.229-0.169-0.465-0.333-0.705-0.488l-7.19,7.19V33.645L69.645,33.645z"/><path d="M69.645,31.09l6.342-6.34c-0.26-0.143-0.522-0.276-0.791-0.403l-5.551,5.551V31.09z"/><path d="M69.645,28.536l4.601-4.601c-0.29-0.112-0.586-0.212-0.886-0.306l-3.715,3.715V28.536z"/><path d="M69.645,25.981l2.644-2.644c-0.33-0.075-0.666-0.135-1.004-0.187l-1.64,1.64V25.981z"/><path d="M69.645,36.199l9.282-9.283c-0.204-0.195-0.411-0.385-0.626-0.567l-8.656,8.657V36.199z"/><path d="M73.979,39.529l8.115-8.115c-0.121-0.273-0.25-0.542-0.388-0.805l-8.418,8.418L73.979,39.529z"/><path d="M76.932,41.688l6.271-6.27c-0.043-0.348-0.095-0.691-0.162-1.029l-6.796,6.795L76.932,41.688z"/><path d="M75.454,40.607l7.317-7.316c-0.086-0.306-0.18-0.608-0.285-0.905l-7.721,7.721L75.454,40.607z"/><path d="M79.885,43.848l2.905-2.906c0.14-0.498,0.252-1.008,0.336-1.526l-3.929,3.929L79.885,43.848z"/><path d="M78.408,42.768l4.88-4.879c0.013-0.246,0.021-0.494,0.021-0.744c0-0.154-0.006-0.307-0.011-0.459l-5.579,5.58L78.408,42.768  z"/><path d="M81.098,44.73c0.332-0.521,0.631-1.062,0.894-1.627l-1.317,1.317L81.098,44.73z"/><path d="M69.127,51.268c-7.809,0-14.162-6.352-14.162-14.162c0-7.63,6.066-13.869,13.629-14.148v14.01h0.008l11.838,8.649  c-0.002,0-0.002,0-0.002,0C77.854,49.046,73.744,51.268,69.127,51.268z"/><rect x="18.257" y="38.734" width="25.227" height="4.066"/><rect x="18.255" y="45.044" width="19.133" height="4.064"/><rect x="18.257" y="25.84" width="20.872" height="4.066"/><rect x="18.255" y="32.149" width="19.133" height="4.067"/><text x="0" y="115" fill="#000000" font-size="5px" font-weight="bold" font-family="'Helvetica Neue', Helvetica, Arial-Unicode, Arial, Sans-serif">Created by Rafael Garcia Motta</text><text x="0" y="120" fill="#000000" font-size="5px" font-weight="bold" font-family="'Helvetica Neue', Helvetica, Arial-Unicode, Arial, Sans-serif">from the Noun Project</text></svg>