<?xml version="1.0" encoding="UTF-8"?>
<!DOCTYPE svg PUBLIC "-//W3C//DTD SVG 1.1//EN" "http://www.w3.org/Graphics/SVG/1.1/DTD/svg11.dtd">
<!-- Creator: CorelDRAW 2019 (64-Bit) -->
<svg xmlns="http://www.w3.org/2000/svg" xml:space="preserve" width="215.9mm" height="279.4mm" version="1.1" style="shape-rendering:geometricPrecision; text-rendering:geometricPrecision; image-rendering:optimizeQuality; fill-rule:evenodd; clip-rule:evenodd"
viewBox="0 0 21590 27940"
 xmlns:xlink="http://www.w3.org/1999/xlink">
 <defs>
  <style type="text/css">
   <![CDATA[
    .fil0 {fill:#1E2828}
   ]]>
  </style>
 </defs>
 <g id="Capa_x0020_1">
  <metadata id="CorelCorpID_0Corel-Layer"/>
  <g id="_2680358454736">
   <path class="fil0" d="M2036.4 3662.82l247.04 1245.18c5.92,29.86 32.1,51.32 62.49,51.32l776.96 0c30.39,0 56.57,-21.46 62.49,-51.32l247.03 -1245.14c68.67,-8.42 122.22,-66.45 122.22,-137.34 -1.77,-7.92 33.04,-366.52 -276.64,-641.61l163.36 -616.45c9,-33.96 -11.26,-68.85 -45.25,-77.87 -34.15,-9.02 -68.92,11.25 -77.92,45.28l-150.13 566.55c-125.94,-78.85 -274.26,-125.13 -433.49,-125.13 -452.2,0 -820.09,367.88 -820.09,820.12l0 29.11c0,70.78 53.4,128.74 121.93,137.3zm1390.83 -165.53l0 28.23c0,6.54 -5.1,11.64 -11.63,11.64 -21.2,0 -317.35,0 -310.72,0l13.76 -51.88 296.96 0c6.65,0 11.54,5.04 11.63,12.01zm-454.15 39.87c-418.17,0 -637.26,0 -919.55,0 -6.53,0 -11.66,-5.1 -11.66,-11.64l0 -28.23c0.09,-6.97 5,-12.01 11.66,-12.01l933.29 0 -13.74 51.88zm97.49 1294.76l-672.32 0 -231.63 -1167.37 772.7 0 -187.18 706.36c-8.99,33.96 11.26,68.86 45.25,77.88 34.35,8.98 68.97,-11.49 77.91,-45.29l195.83 -738.95 231.07 0 -231.63 1167.37zm342.76 -1474.04l-260.93 0 88.27 -333.08c85.38,91.58 146.73,205.84 172.66,333.08zm-678.77 -554.19c148.59,0 286.26,47.21 399.19,127.17l-113.16 427.02 -964.82 0c64.35,-315.82 344.25,-554.19 678.79,-554.19z"/>
   <path class="fil0" d="M4429.81 4185.59c-92.85,-37.29 -201.15,5.83 -239.47,102.21 -18.29,45.47 -17.72,95.49 1.65,140.84 19.35,45.28 55.06,80.3 100.53,98.59 92.78,37.27 200.85,-6.14 239.56,-102.39 37.05,-93.21 -6.74,-201.29 -102.27,-239.25zm-16.02 191.91c-11.2,27.81 -45.5,42.8 -73.75,31.54 -28.64,-11.51 -43.21,-44.77 -31.41,-73.9 11.56,-29.17 44.5,-43.03 73.84,-31.29 29.36,11.7 43.08,44.11 31.32,73.65z"/>
   <path class="fil0" d="M4933.34 4812.2c15.55,-6.65 27.8,-19.16 34.09,-34.83 6.31,-15.68 6.13,-33.22 -0.53,-48.78 -267.64,-626.98 -444.68,-1041.72 -777.29,-1820.9 -7.7,-26.53 -31.17,-46.28 -60.19,-46.28l-0.63 0c-0.11,0 -0.21,0.06 -0.32,0.06 -0.12,0 -0.21,-0.06 -0.33,-0.06l-0.62 0c-0.07,0 -0.13,0.05 -0.21,0.05 -0.07,-0.01 -0.14,-0.05 -0.23,-0.05 -21.93,0.27 -48.36,13.83 -58.75,40.8 -75.78,188.59 274.49,-683.18 -741.06,1844.42 -6.32,15.68 -6.13,33.22 0.49,48.78 6.63,15.54 19.13,27.86 34.81,34.15 244.6,98.4 501.35,148.29 763.11,148.29 278.34,0 550.09,-55.73 807.66,-165.65zm-1376.23 -295.35l572.46 -1425.28 603.02 1412.63c-375.46,143.09 -790.22,150.81 -1175.48,12.65zm-47.71 118.68c413.47,149.47 864.54,144.52 1273.25,-13.63l41.51 97.24c-433.35,168.64 -917.06,174.78 -1354.5,15.05l39.74 -98.66z"/>
   <path class="fil0" d="M4006.99 4116.92c-92.78,-37.27 -200.84,6.15 -239.55,102.39 -37.48,94.18 8.39,201.49 102.29,239.25 93.07,37.38 201.16,-6.04 239.44,-102.14 18.41,-45.79 17.82,-95.99 -1.62,-141.4 -19.38,-45.16 -55.15,-80 -100.56,-98.1zm-16.11 192.16c-11.23,28.18 -44.85,42.73 -73.62,31.28 -28.93,-11.63 -43.04,-44.78 -31.54,-73.71 11.09,-27.58 43.67,-43.58 73.94,-31.47 28.88,11.47 43.04,44.49 31.22,73.9z"/>
   <path class="fil0" d="M3976.42 3726.76c-43.33,109.55 10.05,234.58 119.34,278.94 108.92,43.41 234.14,-7.95 278.53,-119.26 43.73,-109.91 -9.8,-234.82 -118.97,-278.37 -108.3,-43.94 -233.38,6.6 -278.9,118.69zm118.22 47.46c17.89,-43.95 67.22,-66.47 113.12,-47.95 44.38,17.68 65.92,68.41 48.18,113.02 -17.2,43.12 -70.13,65.14 -112.65,48.21 -44.39,-18.04 -66.13,-69.11 -48.65,-113.28z"/>
  </g>
 </g>
</svg>
