<?xml version="1.0" encoding="UTF-8"?>
<!DOCTYPE svg PUBLIC "-//W3C//DTD SVG 1.1//EN" "http://www.w3.org/Graphics/SVG/1.1/DTD/svg11.dtd">
<!-- Creator: CorelDRAW 2019 (64-Bit) -->
<svg xmlns="http://www.w3.org/2000/svg" xml:space="preserve" width="215.9mm" height="279.4mm" version="1.1" style="shape-rendering:geometricPrecision; text-rendering:geometricPrecision; image-rendering:optimizeQuality; fill-rule:evenodd; clip-rule:evenodd"
viewBox="0 0 21590 27940"
 xmlns:xlink="http://www.w3.org/1999/xlink">
 <defs>
  <style type="text/css">
   <![CDATA[
    .fil0 {fill:#D2FABE}
   ]]>
  </style>
 </defs>
 <g id="Capa_x0020_1">
  <metadata id="CorelCorpID_0Corel-Layer"/>
  <g id="_2680487301360">
   <path class="fil0" d="M17739.35 7025.3l-3850.47 -1071.23c-190.61,-43.12 -386.47,-65.52 -582.28,-65.52 -421.49,0 -837.47,102.08 -1210.93,296.64l-8891.71 5196.79c-346.06,201.41 -558.93,571.63 -558.93,972.01 0,195.96 51.37,388.72 148.6,558.72l3110.98 5362.05c201.76,343.36 570.48,554.47 968.86,554.47 197.81,0 392.32,-52.26 563.42,-151.44l9034.61 -5212.8c519.31,-331.91 907.83,-836.22 1095.99,-1423.25l969.51 -3642.85c23.31,-91.33 35.26,-185.76 35.26,-280.34 0,-510.26 -341.01,-957.85 -832.86,-1093.25l-0.05 0zm1114.2 2619.53l-969.46 3642.85c-153.3,459.3 -458.14,854.57 -863.67,1119.76l-9034.7 5212.79c-95.58,55.97 -204.42,85.43 -315.15,85.43 -220.87,0 -425.34,-116.74 -537.57,-306.85l-3908.74 -6735.97c-53.51,-94.23 -81.72,-200.82 -81.72,-309.25 0,-223.42 119.28,-430.14 312.65,-541.92l8891.55 -5196.79c297.45,-150.4 626.75,-229.08 960.21,-229.08 150.65,0 301.54,16.11 448.54,47.77l3850.32 1071.24c276.68,74.82 468.99,325.95 468.99,612.54 0,51.82 -6.35,103.48 -18.9,153.75l797.65 1373.73z"/>
   <path class="fil0" d="M13193.31 7951.65l-134.94 -209.17c-45.72,-71.62 -124.84,-114.98 -209.82,-114.98 -137.44,0 -248.93,111.48 -248.93,248.92 0,48.22 14.11,95.43 40.42,135.9l134.94 209.16c45.71,71.63 124.84,114.99 209.82,114.99 137.44,0 248.92,-111.49 248.92,-248.93 0,-48.21 -14.1,-95.48 -40.41,-135.89l0 0z"/>
   <path class="fil0" d="M13665.56 8683.68l-134.89 -209.17c-45.92,-70.42 -124.44,-112.98 -208.52,-112.98 -137.44,0 -248.93,111.43 -248.93,248.88 0,47.46 13.61,93.98 39.12,133.94l134.89 209.16c45.91,70.43 124.44,112.99 208.51,112.99 137.45,0 248.93,-111.49 248.93,-248.93 0,-47.41 -13.6,-93.93 -39.06,-133.89l-0.05 0z"/>
   <path class="fil0" d="M15082.51 10879.87l-134.94 -209.16c-45.92,-70.43 -124.39,-112.99 -208.52,-112.99 -137.44,0 -248.88,111.44 -248.88,248.88 0,47.46 13.56,93.98 39.06,133.94l134.9 209.17c45.96,70.42 124.44,112.98 208.56,112.98 137.45,0 248.88,-111.48 248.88,-248.93 0,-47.41 -13.55,-93.93 -39.06,-133.89l0 0z"/>
   <path class="fil0" d="M14137.86 9415.71l-134.89 -209.17c-45.92,-70.42 -124.39,-112.98 -208.52,-112.98 -137.44,0 -248.93,111.43 -248.93,248.88 0,47.41 13.61,93.98 39.12,133.94l134.89 209.17c45.91,70.42 124.44,112.98 208.51,112.98 137.45,0 248.93,-111.48 248.93,-248.93 0,-47.41 -13.6,-93.93 -39.06,-133.89l-0.05 0z"/>
   <path class="fil0" d="M15419.86 11402.74c-45.91,-70.42 -124.38,-112.99 -208.51,-112.99 -137.44,0 -248.88,111.44 -248.88,248.88 0,47.47 13.55,93.98 39.06,133.94l127.59 197.87c45.97,70.42 124.44,112.98 208.57,112.98 137.44,0 248.88,-111.43 248.88,-248.88 0,-47.46 -13.56,-93.98 -39.06,-133.94l-127.65 -197.86z"/>
   <path class="fil0" d="M14610.16 10147.84l-134.89 -209.16c-45.92,-70.43 -124.39,-112.99 -208.52,-112.99 -137.44,0 -248.93,111.48 -248.93,248.93 0,47.41 13.61,93.93 39.11,133.89l134.9 209.17c45.91,70.42 124.44,112.98 208.51,112.98 137.45,0 248.93,-111.43 248.93,-248.88 0,-47.46 -13.6,-93.98 -39.06,-133.94l-0.05 0z"/>
   <path class="fil0" d="M6893.87 14752.7l-134.94 -209.17c-45.92,-70.42 -124.39,-112.99 -208.52,-112.99 -137.44,0 -248.88,111.44 -248.88,248.88 0,47.47 13.56,93.98 39.07,133.94l134.89 209.17c45.96,70.42 124.44,112.99 208.57,112.99 137.44,0 248.87,-111.44 248.87,-248.88 0,-47.47 -13.55,-93.98 -39.06,-133.94l0 0z"/>
   <path class="fil0" d="M5949.22 13288.53l-134.89 -209.16c-45.91,-70.43 -124.39,-112.99 -208.51,-112.99 -137.45,0 -248.88,111.44 -248.88,248.88 0,47.46 13.55,93.98 39.06,133.94l134.89 209.17c45.97,70.42 124.44,112.98 208.57,112.98 137.44,0 248.88,-111.48 248.88,-248.92 0,-47.42 -13.56,-93.93 -39.07,-133.9l-0.05 0z"/>
   <path class="fil0" d="M6421.57 14020.56l-134.94 -209.16c-45.91,-70.42 -124.39,-112.99 -208.52,-112.99 -137.44,0 -248.87,111.44 -248.87,248.88 0,47.47 13.6,93.98 39.06,133.94l134.89 209.17c45.97,70.37 124.44,112.99 208.57,112.99 137.44,0 248.88,-111.49 248.88,-248.93 0,-47.42 -13.56,-93.93 -39.07,-133.9l0 0z"/>
   <path class="fil0" d="M5477.02 12556.5l-134.99 -209.16c-45.66,-71.63 -124.84,-114.99 -209.81,-114.99 -137.45,0 -248.88,111.43 -248.88,248.88 0,48.26 14.05,95.48 40.36,135.94l134.99 209.17c45.67,71.62 124.84,114.98 209.82,114.98 137.44,0 248.88,-111.48 248.88,-248.93 0,-48.21 -14.06,-95.48 -40.37,-135.89l0 0z"/>
   <path class="fil0" d="M7366.17 15484.73l-134.89 -209.17c-45.92,-70.42 -124.44,-112.98 -208.57,-112.98 -137.44,0 -248.88,111.43 -248.88,248.87 0,47.47 13.61,93.98 39.07,133.95l134.94 209.16c45.91,70.42 124.39,112.99 208.51,112.99 137.45,0 248.88,-111.44 248.88,-248.88 0,-47.47 -13.55,-93.98 -39.06,-133.94l0 0z"/>
   <path class="fil0" d="M7703.53 16007.59c-45.92,-70.42 -124.39,-112.98 -208.52,-112.98 -137.44,0 -248.88,111.43 -248.88,248.87 0,47.47 13.61,93.98 39.07,133.95l127.64 197.86c45.91,70.42 124.44,112.99 208.51,112.99 137.45,0 248.93,-111.49 248.93,-248.93 0,-47.42 -13.6,-93.93 -39.11,-133.9l-127.64 -197.86z"/>
   <path class="fil0" d="M9986.7 10739.88c0,0 0,0 0,0 0,-481.1 -390.12,-871.23 -871.23,-871.23 -481.05,0 -871.17,390.13 -871.17,871.23 0,481.05 390.12,871.17 871.17,871.17 480.96,-0.55 870.68,-390.27 871.23,-871.12l0 -0.05zm-1244.59 0c0,0 0,0 0,0 0,-206.17 167.2,-373.37 373.36,-373.37 206.22,0 373.37,167.2 373.37,373.37 0,206.16 -167.15,373.37 -373.37,373.37 -206.06,-0.2 -373.16,-167.31 -373.36,-373.37l0 0z"/>
   <path class="fil0" d="M11500.38 10163.9c-42.12,-30.06 -92.73,-46.22 -144.55,-46.22 -80.42,0 -155.9,38.81 -202.66,104.18l-2489.14 3484.76c-30.36,42.26 -46.66,93.07 -46.66,145.14 0,137.39 111.43,248.88 248.87,248.88 80.58,0 156.25,-39.11 202.87,-104.73l2489.14 -3484.75c30.15,-42.22 46.36,-92.83 46.36,-144.7 0,-80.38 -38.81,-155.85 -104.23,-202.56l0 0z"/>
   <path class="fil0" d="M11977.98 13477.89c0.05,0 0.05,0 0.05,0 0,-481.1 -390.18,-871.22 -871.23,-871.22 -481.05,0 -871.17,390.12 -871.17,871.22 0,481.05 390.12,871.18 871.17,871.18 480.95,-0.5 870.68,-390.28 871.23,-871.13l-0.05 -0.05zm-1244.55 0c0,0 0,0 0,0 0,-206.16 167.21,-373.36 373.37,-373.36 206.17,0 373.37,167.2 373.37,373.36 0,206.17 -167.2,373.37 -373.37,373.37 -206.06,-0.2 -373.17,-167.3 -373.37,-373.37l0 0z"/>
   <path class="fil0" d="M16796.45 9119.62c0,0 0,0 0,0 0,-481.06 -390.12,-871.18 -871.18,-871.18 -481.05,0 -871.17,390.12 -871.17,871.18 0,481.05 390.12,871.22 871.17,871.22 480.96,-0.55 870.68,-390.27 871.18,-871.17l0 -0.05zm-1244.54 0c0,0 0,0 0,0 0,-206.17 167.2,-373.37 373.36,-373.37 206.17,0 373.37,167.2 373.37,373.37 0,206.16 -167.2,373.36 -373.37,373.36 -206.06,-0.15 -373.16,-167.25 -373.36,-373.36l0 0z"/>
  </g>
 </g>
</svg>
