<?xml version="1.0" encoding="UTF-8"?>
<!DOCTYPE svg PUBLIC "-//W3C//DTD SVG 1.1//EN" "http://www.w3.org/Graphics/SVG/1.1/DTD/svg11.dtd">
<!-- Creator: CorelDRAW 2019 (64-Bit) -->
<svg xmlns="http://www.w3.org/2000/svg" xml:space="preserve" width="215.9mm" height="279.4mm" version="1.1" style="shape-rendering:geometricPrecision; text-rendering:geometricPrecision; image-rendering:optimizeQuality; fill-rule:evenodd; clip-rule:evenodd"
viewBox="0 0 21590 27940"
 xmlns:xlink="http://www.w3.org/1999/xlink">
 <defs>
  <style type="text/css">
   <![CDATA[
    .fil0 {fill:#D2FABE}
   ]]>
  </style>
 </defs>
 <g id="Capa_x0020_1">
  <metadata id="CorelCorpID_0Corel-Layer"/>
  <g id="_2680085677248">
   <path class="fil0" d="M5322.08 2087.26l-769.85 -214.18c-38.11,-8.62 -77.27,-13.1 -116.42,-13.1 -84.27,0 -167.44,20.41 -242.11,59.31l-1777.78 1039.03c-69.19,40.27 -111.75,114.29 -111.75,194.34 0,39.18 10.27,77.72 29.71,111.71l622 1072.07c40.34,68.65 114.06,110.86 193.71,110.86 39.55,0 78.44,-10.45 112.65,-30.28l1806.35 -1042.23c103.83,-66.36 181.51,-167.19 219.13,-284.56l193.84 -728.34c4.66,-18.26 7.05,-37.14 7.05,-56.05 0,-102.02 -68.18,-191.51 -166.52,-218.58l-0.01 0zm222.77 523.74l-193.83 728.34c-30.65,91.83 -91.6,170.86 -172.68,223.88l-1806.37 1042.23c-19.11,11.19 -40.87,17.08 -63.01,17.08 -44.16,0 -85.04,-23.34 -107.48,-61.35l-781.5 -1346.77c-10.7,-18.84 -16.34,-40.15 -16.34,-61.83 0,-44.67 23.85,-86 62.51,-108.35l1777.75 -1039.03c59.47,-30.07 125.31,-45.8 191.98,-45.8 30.12,0 60.29,3.22 89.68,9.55l769.82 214.18c55.32,14.96 93.77,65.17 93.77,122.47 0,10.36 -1.27,20.69 -3.78,30.74l159.48 274.66z"/>
   <path class="fil0" d="M4413.16 2272.47l-26.98 -41.82c-9.14,-14.32 -24.96,-22.99 -41.95,-22.99 -27.48,0 -49.77,22.29 -49.77,49.77 0,9.64 2.82,19.08 8.08,27.17l26.98 41.82c9.14,14.32 24.96,22.99 41.95,22.99 27.48,0 49.77,-22.29 49.77,-49.77 0,-9.64 -2.82,-19.09 -8.08,-27.17l0 0z"/>
   <path class="fil0" d="M4507.58 2418.83l-26.97 -41.82c-9.18,-14.08 -24.88,-22.59 -41.69,-22.59 -27.48,0 -49.77,22.28 -49.77,49.76 0,9.49 2.72,18.79 7.82,26.78l26.97 41.82c9.18,14.08 24.88,22.59 41.69,22.59 27.48,0 49.77,-22.29 49.77,-49.77 0,-9.48 -2.72,-18.78 -7.81,-26.77l-0.01 0z"/>
   <path class="fil0" d="M4790.88 2857.93l-26.98 -41.82c-9.18,-14.08 -24.87,-22.59 -41.69,-22.59 -27.48,0 -49.76,22.28 -49.76,49.76 0,9.49 2.71,18.79 7.81,26.78l26.97 41.82c9.19,14.08 24.88,22.59 41.7,22.59 27.48,0 49.76,-22.29 49.76,-49.77 0,-9.48 -2.71,-18.78 -7.81,-26.77l0 0z"/>
   <path class="fil0" d="M4602.01 2565.19l-26.97 -41.82c-9.18,-14.08 -24.87,-22.59 -41.69,-22.59 -27.48,0 -49.77,22.28 -49.77,49.76 0,9.48 2.72,18.79 7.82,26.78l26.97 41.82c9.18,14.08 24.88,22.59 41.69,22.59 27.48,0 49.77,-22.29 49.77,-49.77 0,-9.48 -2.72,-18.78 -7.81,-26.77l-0.01 0z"/>
   <path class="fil0" d="M4858.33 2962.47c-9.18,-14.08 -24.87,-22.59 -41.69,-22.59 -27.48,0 -49.76,22.28 -49.76,49.76 0,9.49 2.71,18.79 7.81,26.78l25.51 39.56c9.19,14.08 24.88,22.59 41.7,22.59 27.48,0 49.76,-22.28 49.76,-49.76 0,-9.49 -2.71,-18.79 -7.81,-26.78l-25.52 -39.56z"/>
   <path class="fil0" d="M4696.44 2711.57l-26.97 -41.82c-9.18,-14.08 -24.87,-22.59 -41.69,-22.59 -27.48,0 -49.77,22.29 -49.77,49.77 0,9.48 2.72,18.78 7.82,26.77l26.97 41.82c9.18,14.08 24.88,22.59 41.69,22.59 27.48,0 49.77,-22.28 49.77,-49.76 0,-9.49 -2.72,-18.79 -7.81,-26.78l-0.01 0z"/>
   <path class="fil0" d="M3153.67 3632.25l-26.98 -41.82c-9.18,-14.08 -24.87,-22.59 -41.69,-22.59 -27.48,0 -49.76,22.28 -49.76,49.76 0,9.49 2.71,18.79 7.81,26.78l26.97 41.82c9.19,14.08 24.88,22.59 41.7,22.59 27.48,0 49.76,-22.28 49.76,-49.76 0,-9.49 -2.71,-18.79 -7.81,-26.78l0 0z"/>
   <path class="fil0" d="M2964.8 3339.51l-26.97 -41.82c-9.18,-14.08 -24.87,-22.59 -41.69,-22.59 -27.48,0 -49.76,22.28 -49.76,49.76 0,9.49 2.71,18.79 7.81,26.78l26.97 41.82c9.19,14.08 24.88,22.59 41.7,22.59 27.48,0 49.76,-22.29 49.76,-49.77 0,-9.48 -2.71,-18.78 -7.81,-26.77l-0.01 0z"/>
   <path class="fil0" d="M3059.24 3485.87l-26.98 -41.82c-9.18,-14.08 -24.87,-22.59 -41.69,-22.59 -27.48,0 -49.76,22.28 -49.76,49.76 0,9.49 2.72,18.79 7.81,26.78l26.97 41.82c9.19,14.07 24.88,22.59 41.7,22.59 27.48,0 49.76,-22.29 49.76,-49.77 0,-9.48 -2.71,-18.78 -7.81,-26.77l0 0z"/>
   <path class="fil0" d="M2870.39 3193.15l-26.99 -41.82c-9.13,-14.32 -24.96,-22.99 -41.95,-22.99 -27.48,0 -49.76,22.28 -49.76,49.76 0,9.65 2.81,19.09 8.07,27.18l26.99 41.82c9.13,14.32 24.96,22.99 41.95,22.99 27.48,0 49.76,-22.29 49.76,-49.77 0,-9.64 -2.81,-19.09 -8.07,-27.17l0 0z"/>
   <path class="fil0" d="M3248.1 3778.61l-26.97 -41.82c-9.18,-14.08 -24.88,-22.59 -41.7,-22.59 -27.48,0 -49.76,22.28 -49.76,49.76 0,9.49 2.72,18.79 7.81,26.78l26.98 41.82c9.18,14.08 24.87,22.59 41.69,22.59 27.48,0 49.76,-22.28 49.76,-49.76 0,-9.49 -2.71,-18.79 -7.81,-26.78l0 0z"/>
   <path class="fil0" d="M3315.55 3883.15c-9.18,-14.08 -24.87,-22.59 -41.69,-22.59 -27.48,0 -49.76,22.28 -49.76,49.76 0,9.49 2.72,18.79 7.81,26.78l25.52 39.56c9.18,14.08 24.88,22.59 41.69,22.59 27.48,0 49.77,-22.29 49.77,-49.77 0,-9.48 -2.72,-18.78 -7.82,-26.77l-25.52 -39.56z"/>
   <path class="fil0" d="M3772.04 2829.94c0,0 0,0 0,0 0,-96.19 -78,-174.19 -174.19,-174.19 -96.18,0 -174.18,78 -174.18,174.19 0,96.18 78,174.18 174.18,174.18 96.16,-0.11 174.08,-78.03 174.19,-174.17l0 -0.01zm-248.84 0c0,0 0,0 0,0 0,-41.22 33.43,-74.65 74.65,-74.65 41.23,0 74.65,33.43 74.65,74.65 0,41.22 -33.42,74.65 -74.65,74.65 -41.2,-0.04 -74.61,-33.45 -74.65,-74.65l0 0z"/>
   <path class="fil0" d="M4074.68 2714.78c-8.42,-6.01 -18.54,-9.24 -28.9,-9.24 -16.08,0 -31.17,7.76 -40.52,20.83l-497.67 696.73c-6.07,8.45 -9.33,18.61 -9.33,29.02 0,27.47 22.28,49.76 49.76,49.76 16.11,0 31.24,-7.82 40.56,-20.94l497.67 -696.73c6.03,-8.44 9.27,-18.56 9.27,-28.93 0,-16.07 -7.76,-31.16 -20.84,-40.5l0 0z"/>
   <path class="fil0" d="M4170.17 3377.37c0.01,0 0.01,0 0.01,0 0,-96.19 -78.01,-174.19 -174.19,-174.19 -96.18,0 -174.18,78 -174.18,174.19 0,96.18 78,174.18 174.18,174.18 96.16,-0.1 174.08,-78.03 174.19,-174.17l-0.01 -0.01zm-248.83 0c0,0 0,0 0,0 0,-41.22 33.43,-74.65 74.65,-74.65 41.22,0 74.65,33.43 74.65,74.65 0,41.22 -33.43,74.65 -74.65,74.65 -41.2,-0.04 -74.61,-33.45 -74.65,-74.65l0 0z"/>
   <path class="fil0" d="M5133.56 2505.99c0,0 0,0 0,0 0,-96.18 -78,-174.18 -174.18,-174.18 -96.18,0 -174.18,78 -174.18,174.18 0,96.18 78,174.19 174.18,174.19 96.16,-0.11 174.08,-78.03 174.18,-174.18l0 -0.01zm-248.83 0c0,0 0,0 0,0 0,-41.22 33.43,-74.65 74.65,-74.65 41.22,0 74.65,33.43 74.65,74.65 0,41.22 -33.43,74.65 -74.65,74.65 -41.2,-0.03 -74.61,-33.44 -74.65,-74.65l0 0z"/>
  </g>
 </g>
</svg>
