<?xml version="1.0" encoding="UTF-8"?>
<!DOCTYPE svg PUBLIC "-//W3C//DTD SVG 1.1//EN" "http://www.w3.org/Graphics/SVG/1.1/DTD/svg11.dtd">
<!-- Creator: CorelDRAW 2019 (64-Bit) -->
<svg xmlns="http://www.w3.org/2000/svg" xml:space="preserve" width="215.9mm" height="279.4mm" version="1.1" style="shape-rendering:geometricPrecision; text-rendering:geometricPrecision; image-rendering:optimizeQuality; fill-rule:evenodd; clip-rule:evenodd"
viewBox="0 0 21590 27940"
 xmlns:xlink="http://www.w3.org/1999/xlink">
 <defs>
  <style type="text/css">
   <![CDATA[
    .fil0 {fill:#28281E}
   ]]>
  </style>
 </defs>
 <g id="Capa_x0020_1">
  <metadata id="CorelCorpID_0Corel-Layer"/>
  <g id="_2680345353360">
   <g id="_2379234775296">
    <path class="fil0" d="M15977.34 9418.94c-152.85,1202.1 1251.28,425.4 2052.54,85.48 548.32,-232.6 996.49,-521.19 854.74,-1026.06 -602.52,-663.01 -2821.73,268.97 -2907.28,940.58z"/>
    <path class="fil0" d="M6486.11 13950.78c736.47,135.74 895.33,-785.58 1710.19,-769.18 0,-199.89 0,-399.06 0,-598.58 -457.11,-214.85 -892.82,22.47 -1197.16,-256.52 -841.13,150.34 -1554.4,1432.99 -513.03,1624.28z"/>
    <path class="fil0" d="M13070.14 5913.15c-939.51,514.11 -1643.54,1263.39 -2223.15,2137.67 -138.24,23.91 -147.19,-80.9 -256.51,-85.48 -159.29,504.15 -399.77,545.45 -855.1,769.54 26.35,284.29 296.75,-365.91 256.52,85.48 -136.46,461.77 -962.7,234.46 -1026.06,769.61 131.09,-412.58 -655.21,-72.74 -684.06,342 -985.1,-230.53 -2549.53,638.81 -3334.75,1282.57 -247.64,-47.68 131.08,-133.24 85.48,-256.52 -1161.08,207.05 -1553.76,1182.13 -1966.63,2137.66 0,228.03 0,456.05 0,684.07 114.33,1898.26 2312.2,3145.96 3933.26,2223.21 1157.93,1169.24 1853.01,2298.32 2992.76,3420.23 1056.69,-404.71 2199.3,-351.3 2736.17,-1368.12 -680.12,-1314.64 -2005.08,-1984.81 -2650.33,-3334.75 1707.32,-1032.86 4123.19,126.15 6327.5,-85.12 -191.65,-1507.8 -971.93,-2956.03 -1539.15,-4446.36 -559.35,-1468.21 -960.12,-3046.52 -1795.95,-4275.69zm-4275.33 8550.66c-119.35,876.42 800.9,984.03 1026.05,1453.6 225.95,471.72 -13.88,892.82 598.58,855.09 -47.75,193.09 -133.59,-103.66 -256.51,85.13 282.14,-20.98 431.41,531.21 598.51,342.06 5.73,185.64 137.53,521.91 85.55,684.06 -439.29,230.53 -612.47,-22.48 -855.09,0 -283.22,-83.4 95.5,-168.88 85.48,-256.51 -842.21,-982.31 -1629.94,-2018.32 -2565.14,-2907.28 -1258.73,293.6 -2141.96,729.31 -2992.76,-256.51 -111.18,-244.06 54.13,-578.97 -256.51,-769.54 382.94,-2721.21 5421.44,-1957.4 6498.47,-4446.36 816.58,-608.53 1447.95,-1401.92 2052.18,-2223.15 898.55,2265.17 1799.18,4528.26 2650.69,6840.54 -2434.77,-200.6 -5183.83,-844.43 -6669.5,598.87z"/>
    <path class="fil0" d="M19483.12 12839.53c-654.85,-353.38 -2187.2,-1186.71 -2308.33,256.51 279.35,279.71 2703.09,1376.72 2821.72,598.58 -31,-412.58 -936.64,-778.49 -513.39,-855.09z"/>
    <path class="fil0" d="M16062.89 6426.18c14.25,-715.42 1060.28,-1935.99 256.52,-2650.69 -142.19,0 -285.01,0 -427.19,0 -226.95,638.46 -1240.19,1902.91 -684.42,2907.21 531.21,123.63 445.73,-501.58 855.09,-256.52z"/>
   </g>
  </g>
 </g>
</svg>
