<?xml version="1.0" encoding="UTF-8"?>
<!DOCTYPE svg PUBLIC "-//W3C//DTD SVG 1.1//EN" "http://www.w3.org/Graphics/SVG/1.1/DTD/svg11.dtd">
<!-- Creator: CorelDRAW 2019 (64-Bit) -->
<svg xmlns="http://www.w3.org/2000/svg" xml:space="preserve" width="215.9mm" height="279.4mm" version="1.1" style="shape-rendering:geometricPrecision; text-rendering:geometricPrecision; image-rendering:optimizeQuality; fill-rule:evenodd; clip-rule:evenodd"
viewBox="0 0 21590 27940"
 xmlns:xlink="http://www.w3.org/1999/xlink"
 data-name="Слой 1"
 enable-background="new 0 0 100 100">
 <defs>
  <style type="text/css">
   <![CDATA[
    .fil0 {fill:#1E1E28}
   ]]>
  </style>
 </defs>
 <g id="Capa_x0020_1">
  <metadata id="CorelCorpID_0Corel-Layer"/>
  <g id="_2680160694496">
   <circle class="fil0" cx="15314.44" cy="5615.17" r="1178.6"/>
   <circle class="fil0" cx="5919.34" cy="5633.52" r="1178.38"/>
   <path class="fil0" d="M6233.9 7132.95l-1752.03 12.52 -2356.98 -2357.19 -785.88 785.88 3009.22 3008.99 0 6406.62 1178.6 0 0 -3142.64 785.66 0 0 3142.64 1178.6 0 0 -6599.85c0,-693.69 -562.85,-1256.97 -1257.19,-1256.97z"/>
   <path class="fil0" d="M20043.73 5550.83l-785.66 -785.88 -2356.76 2356.99 -1901 -7.34c-693.9,0 -1256.97,562.64 -1256.97,1256.97l0 6600.06 1178.59 0 0 -3142.86 785.88 0 0 3142.86 1178.38 0 0 -6294.56 15.11 16.62 3142.43 -3142.86z"/>
   <polygon class="fil0" points="13749.38,2996.52 12638.14,2996.52 12638.14,5914.41 12205.26,6347.29 9062.41,6347.29 8602.11,5886.99 8602.11,2996.52 7491.09,2996.52 7491.09,6347.29 9062.41,7918.61 9062.41,14989.77 10240.79,14989.77 10240.79,11061.47 11026.67,11061.47 11026.67,14989.77 12205.26,14989.77 12205.26,7918.61 13749.38,6374.71 "/>
   <circle class="fil0" cx="10633.73" cy="4383.03" r="1178.6"/>
  </g>
 </g>
</svg>
