<?xml version="1.0" encoding="UTF-8"?>
<!DOCTYPE svg PUBLIC "-//W3C//DTD SVG 1.1//EN" "http://www.w3.org/Graphics/SVG/1.1/DTD/svg11.dtd">
<!-- Creator: CorelDRAW 2019 (64-Bit) -->
<svg xmlns="http://www.w3.org/2000/svg" xml:space="preserve" width="215.9mm" height="279.4mm" version="1.1" style="shape-rendering:geometricPrecision; text-rendering:geometricPrecision; image-rendering:optimizeQuality; fill-rule:evenodd; clip-rule:evenodd"
viewBox="0 0 21590 27940"
 xmlns:xlink="http://www.w3.org/1999/xlink">
 <defs>
  <style type="text/css">
   <![CDATA[
    .fil0 {fill:#D2FAC0}
   ]]>
  </style>
 </defs>
 <g id="Capa_x0020_1">
  <metadata id="CorelCorpID_0Corel-Layer"/>
  <g id="_2680349123200">
   <g>
    <path class="fil0" d="M7094.25 9433.97c1350.75,0 2465.65,-1093.46 2465.65,-2465.65 0,-1372.19 -1093.46,-2465.65 -2465.65,-2465.65 -1372.19,0 -2465.65,1093.46 -2465.65,2465.65 0,1372.19 1093.46,2465.65 2465.65,2465.65zm0 -4373.85c1050.58,0 1929.64,857.62 1929.64,1929.64 0,1072.02 -857.62,1929.64 -1929.64,1929.64 -1050.58,0 -1929.64,-857.62 -1929.64,-1929.64 0,-1072.02 857.62,-1929.64 1929.64,-1929.64z"/>
    <path class="fil0" d="M17149.83 11792.42l-1415.07 -1415.07c-42.89,-42.88 -128.65,-85.76 -192.97,-85.76 0,0 0,0 0,0 -64.32,0 -128.64,21.44 -192.96,85.76 -771.86,771.86 -2637.18,2637.18 -3216.07,3216.07 -85.76,-85.76 -192.97,-192.97 -321.61,-300.17 -578.89,-557.45 -1372.19,-1329.31 -1479.39,-1415.07 -107.2,-85.76 -192.96,-192.96 -300.17,-278.72 -857.61,-793.3 -1736.67,-1629.48 -3108.86,-1629.48 -2208.37,0 -3987.93,1801 -3987.93,3987.93l0 4631.13c0,150.09 128.65,278.73 278.73,278.73l7461.28 0c150.08,0 278.72,-128.64 278.72,-278.73l0 -2487.09c1093.47,1093.47 1093.47,1093.47 1200.67,1093.47 64.32,0 128.64,-21.45 192.96,-85.77l4824.11 -4931.3c85.76,-107.2 85.76,-278.73 -21.44,-385.93zm-5017.07 4738.34c-300.17,-278.73 -857.62,-857.62 -1286.43,-1264.99 -85.76,-85.76 -192.96,-107.2 -300.16,-64.32 -107.21,42.88 -171.53,128.65 -171.53,257.29l0 2851.58 -6882.38 0 0 -4352.41c0,-1908.2 1543.71,-3451.92 3451.91,-3451.92 1157.78,0 1886.76,686.1 2744.38,1479.39 107.2,85.77 192.96,192.97 300.16,278.73 85.77,85.76 921.94,879.06 1457.95,1415.07 278.73,278.73 493.13,471.69 514.58,493.13 192.96,171.52 343.04,21.44 514.57,-150.08l3065.98 -3065.99 1050.58 1050.58 -4459.61 4523.94z"/>
   </g>
   <g>
    <path class="fil0" d="M19036.59 9112.36l-6796.63 0c-150.08,0 -278.72,128.65 -278.72,278.73 0,150.08 128.64,278.73 278.72,278.73l6796.63 0c150.08,0 278.72,-128.65 278.72,-278.73 0,-150.08 -128.64,-278.73 -278.72,-278.73z"/>
    <path class="fil0" d="M13033.26 8233.3l5210.03 0c150.08,0 278.72,-128.64 278.72,-278.72l0 -578.89c0,-1586.6 -1286.42,-2873.02 -2873.02,-2873.02 -1586.59,0 -2873.02,1286.42 -2873.02,2873.02l0 578.89c-21.44,171.52 107.2,278.72 257.29,278.72zm257.28 -836.17c0,-1286.43 1050.59,-2337.01 2337.01,-2337.01 1286.43,0 2358.45,1050.58 2358.45,2337.01l0 300.16 -4695.46 0 0 -300.16z"/>
    <path class="fil0" d="M14855.7 4116.74l1565.15 0c150.08,0 278.73,-128.65 278.73,-278.73 0,-150.08 -128.65,-278.72 -278.73,-278.72l-1565.15 0c-150.09,0 -278.73,128.64 -278.73,278.72 0,150.08 128.64,278.73 278.73,278.73z"/>
   </g>
  </g>
 </g>
</svg>
