<?xml version="1.0" encoding="UTF-8"?>
<!DOCTYPE svg PUBLIC "-//W3C//DTD SVG 1.1//EN" "http://www.w3.org/Graphics/SVG/1.1/DTD/svg11.dtd">
<!-- Creator: CorelDRAW 2019 (64-Bit) -->
<svg xmlns="http://www.w3.org/2000/svg" xml:space="preserve" width="215.9mm" height="279.4mm" version="1.1" style="shape-rendering:geometricPrecision; text-rendering:geometricPrecision; image-rendering:optimizeQuality; fill-rule:evenodd; clip-rule:evenodd"
viewBox="0 0 21590 27940"
 xmlns:xlink="http://www.w3.org/1999/xlink">
 <defs>
  <style type="text/css">
   <![CDATA[
    .fil0 {fill:#D2FABE}
   ]]>
  </style>
 </defs>
 <g id="Capa_x0020_1">
  <metadata id="CorelCorpID_0Corel-Layer"/>
  <g id="_2680160671104">
   <path class="fil0" d="M5144.07 20550.04c-379.24,0 -704.11,-244.72 -1104.82,-640.43 -163.86,-161 -296.96,-291.94 -426.47,-427.9 -711.98,-743.46 -711.27,-1286.57 2.15,-2005.7 1059.73,-1066.9 2124.48,-2130.22 3188.51,-3192.82l2059.38 -2059.37c530.22,-531.66 1058.3,-1066.18 1597.83,-1612.15l730.58 -739.88c67.98,-68.69 149.55,-96.6 254.02,-105.91 94.46,0 185.33,37.93 252.59,104.48l2023.6 2015.72c135.24,135.24 140.96,353.48 12.16,494.45l-129.51 143.83c-100.18,113.06 -202.5,228.27 -311.99,337.74 -2349.88,2352.03 -4691.19,4695.49 -7034.63,7034.63 -402.85,403.58 -729.86,653.31 -1113.4,653.31zm6304.77 -9919.04l-478.7 483.71c-540.25,547.4 -1069.05,1082.64 -1600.71,1615.73l-2059.37 2059.37c-1064.03,1062.6 -2127.35,2125.2 -3187.08,3191.38 -440.78,444.36 -440.07,538.82 7.87,1006.07 124.51,130.95 253.31,256.17 381.39,382.83 233.98,231.83 488.01,464.39 631.83,464.39 147.4,0 418.6,-253.3 608.94,-442.92 2343.46,-2339.88 4684.75,-4682.6 7025.34,-7025.34 71.56,-71.56 135.95,-141.68 198.92,-211.81l-1528.43 -1523.41z"/>
   <path class="fil0" d="M13954 9519.01c-91.59,0 -183.18,-35.06 -253.3,-104.47 -139.54,-139.53 -139.54,-366.36 0,-505.9l1891.22 -1891.22c139.53,-139.53 366.36,-139.53 505.9,0 139.53,139.54 139.53,366.37 0,505.91l-1891.22 1891.21c-69.42,69.41 -161,104.47 -252.6,104.47z"/>
   <path class="fil0" d="M14351.86 11663.54c-0.72,0 -0.72,0 -1.44,0 -95.16,0 -186.04,-38.65 -253.3,-105.91 -334.17,-338.45 -1650.79,-1654.37 -1987.1,-1987.1 -140.25,-138.81 -141.68,-364.93 -3.58,-505.18 975.3,-991.76 2907.31,-2902.3 3385.3,-3375.28l106.62 -105.19c117.35,-117.35 274.77,-179.6 453.67,-179.6 731.29,0 1837.54,1121.28 2118.05,1799.62 198.2,477.99 30.05,747.04 -87.3,864.39l-202.51 202.51c-589.62,592.49 -2311.25,2323.42 -3275.1,3286.56 -67.27,67.26 -158.15,105.18 -253.31,105.18zm-1484.79 -2349.89c403.58,402.86 1082.64,1080.49 1485.5,1485.5 986.76,-988.18 2480.12,-2488.71 3020.36,-3031.1l204.65 -205.37c-23.61,-15.74 -134.52,-308.4 -504.47,-714.12 -433.63,-475.13 -870.83,-728.44 -1020.38,-728.44l-57.25 77.99c-439.34,434.35 -2106.59,2083.71 -3128.41,3115.54z"/>
   <path class="fil0" d="M6835.65 10365.52l0 0c-123.79,0 -228.26,-90.16 -247.58,-212.52 -42.93,-281.21 -78,-493.02 -113.78,-707.68 -42.93,-263.33 -88.01,-531.66 -148.84,-938.82 -36.49,-244 -50.8,-276.92 -276.92,-308.4 -741.31,-103.76 -1119.12,-167.44 -1758.12,-320.57 -115.2,-27.91 -196.06,-133.09 -192.48,-251.16 3.58,-118.79 89.44,-218.96 206.08,-239.72l492.3 -89.44c440.06,-80.86 880.14,-162.44 1323.06,-229.7 149.55,-23.61 174.6,-48.65 191.06,-191.77 64.4,-569.58 110.2,-853.66 272.62,-1689.43 22.9,-120.2 126.66,-198.91 251.17,-202.49 62.25,1.43 119.5,25.04 163.14,65.12 45.8,30.77 80.15,76.56 92.31,137.39 161.01,828.61 206.8,1113.4 271.91,1689.43 16.46,142.4 42.22,167.44 192.49,191.77 440.78,67.97 881.56,148.82 1321.63,229.69l492.3 89.44c116.64,20.76 202.5,120.93 206.08,239.71 3.58,118.07 -76.57,223.26 -192.48,251.16 -638.99,153.13 -1016.09,216.81 -1756.69,320.57 -226.83,31.48 -241.14,64.4 -278.35,309.12 -62.25,415.02 -106.62,685.5 -151.7,953.83 -34.35,209.66 -68.69,417.89 -111.63,692.66 -18.61,121.65 -123.79,211.81 -247.58,211.81zm-1130.59 -2722.69c125.23,18.61 260.47,38.64 412.17,59.4 558.84,77.28 654.01,402.86 702.67,729.87 6.44,35.05 11.46,68.68 15.75,102.31 5.72,-33.63 10.73,-67.26 16.46,-102.32 48.66,-327.01 143.83,-652.59 703.39,-730.58 150.98,-20.75 286.22,-40.79 411.45,-59.39 -162.44,-27.92 -326.3,-55.1 -489.45,-80.15 -371.37,-57.96 -571.72,-263.32 -613.95,-629.69 -9.29,-84.43 -18.6,-162.43 -27.9,-237.56 -8.59,75.13 -17.89,152.41 -27.91,236.84 -41.51,366.37 -241.14,572.45 -611.8,630.41 -163.87,25.05 -327.01,52.23 -490.88,80.86z"/>
   <path class="fil0" d="M11911.09 6932.28c-88.01,0 -163.86,-64.4 -176.74,-151.7 -26.48,-170.3 -47.23,-297.67 -68.7,-427.18 -26.47,-156.71 -52.95,-316.28 -89.44,-559.56 -20.04,-138.11 -20.76,-143.12 -140.97,-160.29 -412.16,-57.96 -650.44,-95.88 -1056.87,-193.2 -81.58,-19.33 -138.82,-94.46 -136.67,-178.9 2.86,-84.43 63.68,-156.7 147.4,-171.01l299.82 -55.1c262.61,-47.94 524.5,-96.6 788.54,-136.67 79.42,-12.17 82.29,-18.61 90.88,-90.17 38.64,-344.18 66.54,-515.2 163.86,-1013.22 15.74,-83.72 90.16,-144.55 175.31,-144.55 21.47,-1.43 86.58,16.46 119.5,45.08 32.2,22.9 55.81,56.53 64.4,99.46 97.31,498.02 125.22,669.04 163.86,1013.94 8.59,70.84 11.44,77.29 90.16,89.45 264.04,40.79 525.93,88.73 789.26,136.67l299.82 55.1c83.72,15.02 144.54,86.58 147.4,171.02 2.15,84.43 -55.1,159.57 -136.67,178.89 -405.72,97.31 -644.01,134.52 -1056.87,193.2 -119.5,15.74 -120.22,21.47 -140.97,160.29 -36.5,243.29 -62.97,402.86 -89.45,559.56 -20.75,130.23 -42.22,256.88 -68.69,427.9 -14.3,87.31 -90.16,150.99 -178.17,150.99zm-490.87 -1662.95c20.75,3.58 42.94,6.44 64.4,9.3 295.53,41.5 387.83,196.06 427.19,360.64 40.07,-163.86 132.37,-319.14 427.18,-360.64 21.47,-2.87 43.65,-5.73 64.4,-9.3 -37.21,-5.73 -74.42,-12.16 -111.63,-17.18 -211.09,-31.48 -336.31,-140.25 -379.25,-331.3 -44.36,191.05 -168.15,299.82 -379.96,331.3 -38.63,5.72 -75.83,11.45 -112.33,17.18z"/>
   <path class="fil0" d="M16271.69 16527.89c-88.01,0 -163.86,-64.4 -176.74,-151.69 -25.77,-166.73 -46.51,-294.1 -67.98,-421.46 -27.9,-168.87 -55.82,-338.46 -95.17,-598.92 -22.18,-143.83 -23.61,-153.13 -152.41,-170.3 -425.04,-60.12 -671.19,-99.47 -1090.51,-199.64 -82.29,-19.32 -139.54,-95.17 -136.67,-179.61 2.86,-84.44 64.4,-155.99 147.4,-170.3l333.45 -60.82c263.33,-47.23 526.65,-95.88 790.69,-136.67 84.44,-13.6 90.88,-22.9 99.46,-98.03 40.79,-359.93 69.41,-535.95 168.87,-1048.29 16.46,-88.02 92.31,-145.98 185.33,-144.55 42.94,2.87 80.86,19.32 110.2,45.8 32.2,22.18 55.1,55.81 63.68,98.74 100.18,512.34 128.81,688.37 168.87,1048.29 8.59,74.42 13.6,84.44 99.46,98.03 264.05,41.51 527.37,89.45 790.69,136.67l333.46 60.82c83,15.03 144.54,85.87 147.4,170.3 2.85,84.44 -54.39,160.29 -136.67,179.61 -420.04,100.89 -666.19,139.53 -1090.52,199.64 -129.51,17.89 -130.94,26.47 -152.41,170.3 -39.36,260.46 -67.26,430.05 -95.16,598.92 -20.76,127.37 -42.23,254.02 -67.98,421.46 -13.59,87.3 -88.72,151.7 -176.74,151.7zm-547.4 -1712.32c33.63,5.01 68.7,10.01 105.19,15.02 316.28,45.08 402.86,211.1 441.5,392.84 37.92,-176.03 125.94,-347.76 441.49,-392.84 36.5,-5.01 72.27,-10.01 105.19,-15.02 -50.8,-8.59 -103.04,-16.46 -153.84,-24.33 -226.12,-35.07 -355.63,-154.56 -393.56,-366.37 -37.93,211.09 -166.72,331.3 -393.56,366.37 -49.37,7.87 -100.89,15.74 -152.41,24.33z"/>
   <path class="fil0" d="M4230.3 15015.92c-88.01,0 -163.86,-64.4 -176.74,-151.7l-60.82 -376.38c-24.33,-149.55 -49.37,-299.82 -84.43,-532.37 -18.61,-121.65 -18.61,-121.65 -118.79,-135.96 -410.01,-56.53 -618.95,-92.31 -973.15,-177.46 -82.29,-19.32 -138.82,-94.45 -136.67,-179.61 2.86,-84.43 64.4,-155.99 147.4,-170.3l278.35 -50.8c241.15,-44.36 482.29,-88.02 724.15,-125.23 45.79,-7.16 57.24,-16.45 57.96,-16.45 0,0 8.59,-11.45 13.59,-52.96 36.5,-319.85 61.54,-477.27 150.99,-935.95 15.74,-84.43 99.46,-158.14 176.74,-144.54 45.08,0 85.87,16.45 117.35,45.07 32.2,22.9 55.82,57.25 64.4,100.18 90.88,466.54 116.63,623.97 150.98,935.95 5.01,42.22 14.31,52.95 14.31,52.95 0,0 12.16,10.02 57.96,16.46 239.71,36.5 477.99,80.14 716.27,124.51l285.51 51.52c83,15.03 144.54,85.87 147.4,170.3 2.14,84.44 -54.39,160.29 -136.67,179.61 -354.2,85.15 -563.15,120.93 -973.87,178.18 -100.18,14.31 -100.18,14.31 -118.07,134.52 -33.63,223.97 -57.96,371.37 -81.57,515.2 -20.04,119.5 -39.36,236.85 -63.68,394.99 -15.75,85.87 -90.17,150.27 -178.9,150.27l0 0zm-357.06 -1545.6c224.69,41.5 314.13,158.14 357.06,287.65 42.23,-130.23 131.66,-246.87 357.06,-287.65 -2.86,-0.72 -6.44,-0.72 -10.01,-1.43 -179.61,-27.19 -296.24,-117.35 -347.05,-268.33 -50.8,150.26 -166.72,240.42 -347.04,268.33 -3.57,0.71 -7.15,0.71 -10.02,1.43z"/>
  </g>
 </g>
</svg>
