<?xml version="1.0" ?><svg data-name="Layer 11" id="Layer_11" viewBox="0 0 32 32" xmlns="http://www.w3.org/2000/svg"><title/><path d="M25.698,12.448a1.0093,1.0093,0,0,0-.1343-0.15A10.305,10.305,0,0,0,21.668,4.4017,11.1032,11.1032,0,0,0,12.8535,2.16,10.54,10.54,0,0,0,4.0176,13.1258a10.5908,10.5908,0,0,0,1.4772,4.5117c0.1743,0.3321.3425,0.649,0.4832,0.96a10.2937,10.2937,0,0,1-.63,9.9146,0.9644,0.9644,0,0,0,.0112.9942,1.0523,1.0523,0,0,0,.9.4942H18.6146a1.0225,1.0225,0,0,0,1.044-1V25.2725h1.2162c4.1167,0,7.1252-5.75,7.1252-8.1937C28,15.9175,26.39,13.4534,25.698,12.448ZM17.5706,28H7.9334a12.0985,12.0985,0,0,0-.0408-10.2c-0.156-.3438-0.3405-0.6959-0.5342-1.0641a8.7437,8.7437,0,0,1-1.257-3.72A8.418,8.418,0,0,1,13.2164,4.13a8.8412,8.8412,0,0,1,7.11,1.8034,8.3453,8.3453,0,0,1,3.1326,6.0646h-6.24l-4.8941-1.5627a2.575,2.575,0,0,0-3.0432,1.2072,2.33,2.33,0,0,0,.471,2.7806l5.4232,5.1953,2.2882,3.6537H16.5185a3.1911,3.1911,0,0,1-2.2082-.8844,1.0762,1.0762,0,0,0-1.4762-.01,0.97,0.97,0,0,0-.01,1.4142,5.3394,5.3394,0,0,0,3.6946,1.48h1.0521V28ZM16.1752,13.7737l0.6176,2.368a0.9773,0.9773,0,0,1-.2742.9508l-0.5138.4922L11.2284,13.009a0.395,0.395,0,0,1-.08-0.4712,0.4345,0.4345,0,0,1,.5148-0.2046Zm4.7,9.4986H19.8981l-2.5793-4.1186,0.6759-.647a2.932,2.932,0,0,0,.8237-2.8494l-0.4323-1.6589h5.8712a13.1409,13.1409,0,0,1,1.6546,3.08C25.9121,18.7655,23.4623,23.2723,20.8748,23.2723Z"/></svg>